<svg version="1.1" id="Layer_1" xmlns="http://www.w3.org/2000/svg" xmlns:xlink="http://www.w3.org/1999/xlink" x="0px" y="0px"
	 width="100%" viewBox="0 0 1420 1372" enable-background="new 0 0 1420 1372" xml:space="preserve">
<path fill="#F0F0F0" opacity="1.000000" stroke="none" 
	d="
M842.000000,1373.000000 
	C561.333374,1373.000000 281.166779,1373.000000 1.000113,1373.000000 
	C1.000075,915.666809 1.000075,458.333588 1.000038,1.000297 
	C474.333130,1.000198 947.666260,1.000198 1420.999512,1.000099 
	C1420.999756,458.333038 1420.999756,915.666077 1420.999878,1372.999512 
	C1228.166626,1373.000000 1035.333374,1373.000000 842.000000,1373.000000 
M965.463989,317.032318 
	C965.463989,317.032318 964.994385,316.949615 964.987366,316.175537 
	C957.752014,291.168121 947.482666,267.397430 934.967102,244.641663 
	C920.447754,218.242645 903.590942,193.415466 884.046936,170.394333 
	C865.487793,148.533127 845.420166,128.183060 823.243103,110.088112 
	C792.632080,85.111694 759.558960,63.933891 723.224854,48.024052 
	C692.642944,34.632969 661.104614,24.916819 627.861694,20.865229 
	C607.531189,18.387371 587.329285,17.333040 566.840027,19.732029 
	C545.211243,22.264442 524.414490,27.235651 504.495514,35.975033 
	C476.807190,48.123177 453.656982,66.192902 435.568848,90.333267 
	C412.067749,121.697838 400.813568,157.707672 398.196533,196.420044 
	C396.452087,222.224548 398.827820,247.924973 404.354034,273.187103 
	C410.980469,303.478851 421.372803,332.497467 435.515900,360.146271 
	C437.998291,364.999146 439.967010,370.114777 441.216644,375.095306 
	C431.257263,375.020477 421.296021,374.785675 411.338928,374.903473 
	C389.185486,375.165527 367.276550,377.739044 345.508270,381.863556 
	C317.004150,387.264313 289.281219,395.313965 262.338074,405.989868 
	C234.303909,417.098053 207.522339,430.708710 182.097885,446.974884 
	C158.771896,461.898499 136.934891,478.744904 116.904991,497.841431 
	C96.735832,517.070740 78.792908,538.208191 63.507809,561.591492 
	C48.302643,584.852478 36.248405,609.547607 28.446289,636.246765 
	C18.358994,670.765808 16.388405,705.629272 25.477142,740.615967 
	C35.818680,780.425293 58.330284,812.190247 90.931931,837.012146 
	C94.185158,839.489014 97.182198,842.302368 99.889404,845.522583 
	C94.336296,851.935181 88.346375,858.023621 83.305382,864.816284 
	C61.060604,894.790710 49.876373,928.918152 47.145325,965.830078 
	C45.069023,993.892639 47.765652,1021.721252 54.352402,1049.067871 
	C64.906075,1092.884155 83.558243,1133.218506 108.604805,1170.524658 
	C142.493561,1221.000854 184.722931,1263.295166 235.232712,1297.240845 
	C287.530548,1332.388062 344.108673,1356.324951 407.268890,1363.146240 
	C440.383270,1366.722778 473.054016,1364.925537 505.039825,1355.168213 
	C544.880981,1343.014526 577.474304,1320.539307 601.215454,1286.057617 
	C618.925842,1260.335205 628.571594,1231.570679 632.310120,1200.634888 
	C635.394470,1175.111816 634.327209,1149.789917 629.398499,1124.645142 
	C626.843872,1111.612305 623.501160,1098.733887 621.232788,1086.080444 
	C628.608582,1093.028320 635.756836,1100.238159 643.402588,1106.875000 
	C666.839172,1127.218628 693.379700,1141.890259 723.536987,1149.722778 
	C750.061401,1156.611572 776.706604,1156.982910 803.445496,1151.075073 
	C834.769165,1144.153931 862.190247,1129.502686 886.724426,1109.080933 
	C889.434143,1106.825317 892.605591,1105.124512 895.593506,1104.011108 
	C895.708313,1111.488647 895.694763,1118.970703 895.962036,1126.442749 
	C896.792114,1149.653809 900.401550,1172.445435 906.727417,1194.790527 
	C916.202087,1228.257812 931.128296,1258.971680 955.150879,1284.406738 
	C1001.032715,1332.986206 1057.856079,1348.461426 1122.668213,1337.466187 
	C1149.430054,1332.926147 1174.619019,1323.357544 1198.588623,1310.666504 
	C1249.425781,1283.749512 1290.525513,1245.631104 1324.924438,1199.993408 
	C1354.498169,1160.756958 1376.995972,1117.704712 1393.031250,1071.261963 
	C1405.477295,1035.215332 1413.345459,998.181885 1415.663208,960.142639 
	C1417.204224,934.852905 1416.203003,909.566223 1411.974731,884.457581 
	C1406.761841,853.501770 1397.422241,824.030090 1381.475098,796.866699 
	C1360.502808,761.143921 1331.521729,734.416931 1292.801147,718.866943 
	C1273.631958,711.168579 1253.605103,707.397156 1233.138062,705.872314 
	C1233.436523,705.280396 1233.666992,704.640930 1234.042969,704.103333 
	C1252.120361,678.252930 1267.305542,650.795532 1279.607666,621.758362 
	C1289.086182,599.385376 1296.726929,576.405945 1302.073730,552.674438 
	C1306.391479,533.510071 1309.072632,514.158081 1310.338257,494.537323 
	C1311.954834,469.473511 1310.451050,444.654968 1305.402832,420.116821 
	C1300.585449,396.700409 1292.410767,374.497284 1280.062012,353.860748 
	C1262.151001,323.928894 1237.945679,300.922302 1206.504883,285.654968 
	C1187.478516,276.416046 1167.421387,271.168182 1146.398682,268.592316 
	C1125.012329,265.971893 1103.905151,267.173523 1082.845947,270.621643 
	C1061.780640,274.070801 1041.102661,279.514191 1021.725891,288.410828 
	C1002.734436,297.130615 984.497498,307.493927 965.463989,317.032318 
z"/>
<path fill="#B28775" opacity="1.000000" stroke="none" 
	d="
M620.514465,1085.785767 
	C623.501160,1098.733887 626.843872,1111.612305 629.398499,1124.645142 
	C634.327209,1149.789917 635.394470,1175.111816 632.310120,1200.634888 
	C628.571594,1231.570679 618.925842,1260.335205 601.215454,1286.057617 
	C577.474304,1320.539307 544.880981,1343.014526 505.039825,1355.168213 
	C473.054016,1364.925537 440.383270,1366.722778 407.268890,1363.146240 
	C344.108673,1356.324951 287.530548,1332.388062 235.232712,1297.240845 
	C184.722931,1263.295166 142.493561,1221.000854 108.604805,1170.524658 
	C83.558243,1133.218506 64.906075,1092.884155 54.352402,1049.067871 
	C47.765652,1021.721252 45.069023,993.892639 47.145325,965.830078 
	C49.876373,928.918152 61.060604,894.790710 83.305382,864.816284 
	C88.346375,858.023621 94.336296,851.935181 100.309807,845.138428 
	C101.144753,844.503113 101.559296,844.252075 102.138535,844.297668 
	C104.430443,846.162720 106.428108,847.956726 108.705368,849.263672 
	C126.610466,859.539001 145.274551,868.024292 165.120285,873.964783 
	C188.741058,881.035339 212.897217,885.318665 237.392502,886.712036 
	C254.434158,887.681396 271.675323,887.187134 288.702606,885.807129 
	C306.807709,884.339844 324.888641,881.721008 342.759125,878.411499 
	C369.883514,873.388245 396.054321,864.811401 421.652405,854.558716 
	C424.663727,853.352661 427.404999,851.472290 430.568359,849.925781 
	C431.458710,849.987244 432.052155,850.027344 432.789154,850.392944 
	C433.402435,851.166992 433.813202,851.707947 434.350372,852.050720 
	C471.804474,875.954041 505.359650,904.411255 534.643494,937.862427 
	C538.777100,942.584290 542.914612,947.302734 547.171509,952.311401 
	C547.877075,953.678589 548.461426,954.757202 549.059204,956.155640 
	C549.398926,956.982605 549.725220,957.489685 550.023315,957.991699 
	C549.995056,957.986572 550.032043,957.942627 550.026978,958.336975 
	C556.440002,980.793701 565.532837,1001.791138 576.522522,1021.878845 
	C583.749451,1035.088745 591.898499,1047.847656 600.391113,1060.292358 
	C605.862000,1068.308960 612.703796,1075.389893 618.985840,1083.183105 
	C619.531738,1084.245972 620.023132,1085.015869 620.514465,1085.785767 
M439.176697,1205.348755 
	C445.283722,1210.228027 451.367279,1215.137085 457.501770,1219.981567 
	C484.535919,1241.330688 511.468964,1262.851807 541.576355,1279.844116 
	C547.258179,1283.050781 553.709473,1285.060669 560.008667,1286.943970 
	C563.757202,1288.064697 565.933533,1285.485962 564.910034,1281.784180 
	C563.772217,1277.669067 562.450134,1273.319214 560.040955,1269.891968 
	C550.872864,1256.849854 542.029968,1243.447144 531.605103,1231.447998 
	C509.782135,1206.329346 487.653198,1181.414062 464.500702,1157.529297 
	C437.959839,1130.148926 410.520447,1103.609497 382.829346,1077.382690 
	C355.764740,1051.749146 328.089233,1026.748291 300.304230,1001.891907 
	C281.213562,984.813416 261.929138,967.890625 241.918396,951.916626 
	C215.933578,931.173889 189.423950,911.055054 162.558701,891.465149 
	C151.742249,883.577942 139.541428,877.504333 127.621376,871.273499 
	C124.536896,869.661133 118.833572,868.931641 116.624260,870.684387 
	C112.758965,873.750916 115.911461,878.667419 118.103096,881.903259 
	C127.690544,896.058960 136.691025,910.792358 147.764908,923.722900 
	C169.622162,949.244934 192.292877,974.108948 215.422989,998.490112 
	C234.445450,1018.541443 254.397949,1037.730835 274.337921,1056.886230 
	C297.990723,1079.608154 321.971100,1101.992676 346.008209,1124.309570 
	C358.567139,1135.969849 371.424103,1147.318848 384.375397,1158.544312 
	C402.349243,1174.122681 420.538422,1189.452881 439.176697,1205.348755 
z"/>
<path fill="#AB6385" opacity="1.000000" stroke="none" 
	d="
M1233.007080,706.493164 
	C1253.605103,707.397156 1273.631958,711.168579 1292.801147,718.866943 
	C1331.521729,734.416931 1360.502808,761.143921 1381.475098,796.866699 
	C1397.422241,824.030090 1406.761841,853.501770 1411.974731,884.457581 
	C1416.203003,909.566223 1417.204224,934.852905 1415.663208,960.142639 
	C1413.345459,998.181885 1405.477295,1035.215332 1393.031250,1071.261963 
	C1376.995972,1117.704712 1354.498169,1160.756958 1324.924438,1199.993408 
	C1290.525513,1245.631104 1249.425781,1283.749512 1198.588623,1310.666504 
	C1174.619019,1323.357544 1149.430054,1332.926147 1122.668213,1337.466187 
	C1057.856079,1348.461426 1001.032715,1332.986206 955.150879,1284.406738 
	C931.128296,1258.971680 916.202087,1228.257812 906.727417,1194.790527 
	C900.401550,1172.445435 896.792114,1149.653809 895.962036,1126.442749 
	C895.694763,1118.970703 895.708313,1111.488647 895.711548,1103.217651 
	C895.867310,1101.639282 895.904968,1100.854248 896.290405,1100.010986 
	C902.700867,1093.866821 909.414978,1088.293823 914.691223,1081.589111 
	C925.836792,1067.426025 936.754456,1053.020996 946.751709,1038.038696 
	C953.605347,1027.767456 959.129883,1016.540405 964.542480,1005.397644 
	C969.218628,995.771118 973.513062,985.864563 976.880432,975.718201 
	C982.406372,959.067688 987.886963,942.316895 991.823730,925.247864 
	C995.863586,907.732239 998.028320,889.784180 1001.224243,871.904419 
	C1001.699768,871.581177 1001.889893,871.323669 1002.422974,871.008911 
	C1007.042542,870.111816 1011.317383,869.469055 1015.433777,868.278381 
	C1034.353760,862.805908 1053.171509,856.858582 1070.453125,847.271301 
	C1089.560913,836.670776 1108.879883,826.243347 1126.940552,814.017639 
	C1147.119507,800.357971 1165.682251,784.377502 1182.169434,766.277039 
	C1194.907715,752.292297 1207.406494,738.079041 1219.655029,723.664368 
	C1224.003906,718.546326 1227.300903,712.534424 1231.403076,706.867188 
	C1232.154419,706.700195 1232.580811,706.596680 1233.007080,706.493164 
M1203.977905,994.457458 
	C1215.350220,970.231323 1226.906006,946.088989 1238.033691,921.750977 
	C1246.037598,904.245361 1253.853027,886.633179 1261.057373,868.787903 
	C1269.389038,848.150452 1277.590942,827.416809 1284.646362,806.322632 
	C1289.729980,791.124207 1293.029297,775.310120 1296.647339,759.660339 
	C1297.213989,757.209229 1295.928833,752.500305 1294.270630,751.816589 
	C1292.082275,750.914246 1287.849976,752.083862 1285.951050,753.891296 
	C1279.586792,759.949341 1273.176880,766.184387 1268.040161,773.262939 
	C1255.081909,791.120178 1241.959473,808.954590 1230.453003,827.747131 
	C1211.629761,858.489563 1193.684814,889.787720 1176.039185,921.227295 
	C1162.561523,945.240601 1149.913574,969.728821 1137.276001,994.201782 
	C1124.997803,1017.978882 1112.887939,1041.854126 1101.283691,1065.964966 
	C1089.541016,1090.363647 1078.208008,1114.971436 1067.255981,1139.735352 
	C1057.721558,1161.294067 1048.528931,1183.027710 1040.002930,1205.001343 
	C1032.562622,1224.176758 1025.821899,1243.656128 1019.661621,1263.280518 
	C1016.962830,1271.878174 1016.239990,1281.142700 1015.176758,1290.170044 
	C1014.946838,1292.122437 1016.701599,1294.824463 1018.347168,1296.256348 
	C1019.127930,1296.935913 1022.345642,1295.993652 1023.531067,1294.835815 
	C1030.522339,1288.006836 1038.037476,1281.499023 1043.878174,1273.753418 
	C1054.759888,1259.322876 1065.208008,1244.487671 1074.763672,1229.152222 
	C1091.358398,1202.520264 1107.482788,1175.578979 1123.149292,1148.389893 
	C1135.895996,1126.268188 1147.808594,1103.660645 1159.853149,1081.141479 
	C1167.842773,1066.203613 1175.456299,1051.063721 1183.158203,1035.973511 
	C1190.084229,1022.403381 1196.900879,1008.777527 1203.977905,994.457458 
z"/>
<path fill="#E5978C" opacity="1.000000" stroke="none" 
	d="
M101.973846,844.000977 
	C101.559296,844.252075 101.144753,844.503113 100.514175,844.856873 
	C97.182198,842.302368 94.185158,839.489014 90.931931,837.012146 
	C58.330284,812.190247 35.818680,780.425293 25.477142,740.615967 
	C16.388405,705.629272 18.358994,670.765808 28.446289,636.246765 
	C36.248405,609.547607 48.302643,584.852478 63.507809,561.591492 
	C78.792908,538.208191 96.735832,517.070740 116.904991,497.841431 
	C136.934891,478.744904 158.771896,461.898499 182.097885,446.974884 
	C207.522339,430.708710 234.303909,417.098053 262.338074,405.989868 
	C289.281219,395.313965 317.004150,387.264313 345.508270,381.863556 
	C367.276550,377.739044 389.185486,375.165527 411.338928,374.903473 
	C421.296021,374.785675 431.257263,375.020477 441.952728,375.226501 
	C443.433014,375.567932 444.177216,375.778168 444.948059,376.363464 
	C445.496277,378.122009 445.770538,379.672943 446.576660,380.863861 
	C458.175903,397.999908 469.265350,415.524139 481.679474,432.052216 
	C492.102448,445.929199 503.564850,459.131226 515.541748,471.703552 
	C526.039856,482.723633 537.881836,492.465149 549.153259,502.746063 
	C553.027283,506.279602 556.971130,509.736511 560.518555,513.405334 
	C551.283325,516.341309 542.269714,518.713318 533.566650,521.926392 
	C495.078400,536.135803 456.344971,549.762268 418.338745,565.174255 
	C377.368225,581.788208 336.906921,599.707520 296.589905,617.870789 
	C245.036423,641.096191 194.201508,665.889587 145.011475,693.810120 
	C121.897575,706.929626 99.641037,721.594910 77.346863,736.098999 
	C71.623238,739.822571 66.870506,745.282104 62.353218,750.530640 
	C59.348877,754.021362 60.858246,757.563538 65.484062,757.916138 
	C71.531555,758.376953 77.877113,758.566650 83.729126,757.249695 
	C99.437325,753.714417 115.118256,749.862061 130.510651,745.156372 
	C175.525406,731.394714 219.381332,714.407837 262.929474,696.599792 
	C349.010773,661.398621 433.653595,623.070435 515.569702,578.977905 
	C541.171448,565.197388 565.794922,549.599243 591.124756,534.872559 
	C591.557556,534.914490 591.731628,534.916809 592.214111,535.082520 
	C598.009583,538.819031 603.386169,542.579285 609.018982,545.905640 
	C613.495483,548.549133 618.285339,550.662048 622.950806,553.258423 
	C622.965454,553.506287 622.990723,554.002441 622.810303,554.279297 
	C619.897034,557.471680 617.019104,560.265442 614.455261,563.322632 
	C599.881897,580.700378 587.307861,599.393616 576.594849,619.426514 
	C565.183716,640.764771 555.526855,662.827026 548.978088,686.072510 
	C543.722656,704.727173 538.983032,723.608459 535.524902,742.663269 
	C532.572449,758.931702 531.768250,775.590088 529.966248,792.384705 
	C529.842529,793.102905 529.766357,793.512390 529.357910,793.967834 
	C528.024841,794.548218 526.957214,794.987061 526.033630,795.632019 
	C518.024231,801.225464 510.145599,807.012512 502.029510,812.445435 
	C480.078125,827.139954 456.593658,839.038513 432.645599,850.067505 
	C432.052155,850.027344 431.458710,849.987244 430.343414,849.654907 
	C429.295288,848.957520 428.803711,848.494324 428.237732,848.155396 
	C405.510986,834.547485 381.934174,822.708313 357.068481,813.459106 
	C312.897644,797.029114 267.557007,788.794434 220.281601,792.888611 
	C192.793930,795.269104 166.653290,802.145996 142.160675,814.942017 
	C127.364922,822.672119 113.808784,832.156494 101.973846,844.000977 
z"/>
<path fill="#C2C2C2" opacity="1.000000" stroke="none" 
	d="
M444.921417,375.988403 
	C444.177216,375.778168 443.433014,375.567932 442.430908,375.233368 
	C439.967010,370.114777 437.998291,364.999146 435.515900,360.146271 
	C421.372803,332.497467 410.980469,303.478851 404.354034,273.187103 
	C398.827820,247.924973 396.452087,222.224548 398.196533,196.420044 
	C400.813568,157.707672 412.067749,121.697838 435.568848,90.333267 
	C453.656982,66.192902 476.807190,48.123177 504.495514,35.975033 
	C524.414490,27.235651 545.211243,22.264442 566.840027,19.732029 
	C587.329285,17.333040 607.531189,18.387371 627.861694,20.865229 
	C661.104614,24.916819 692.642944,34.632969 723.224854,48.024052 
	C759.558960,63.933891 792.632080,85.111694 823.243103,110.088112 
	C845.420166,128.183060 865.487793,148.533127 884.046936,170.394333 
	C903.590942,193.415466 920.447754,218.242645 934.967102,244.641663 
	C947.482666,267.397430 957.752014,291.168121 964.837952,316.869659 
	C962.115173,319.364410 959.622864,321.296051 956.955566,322.944672 
	C937.515015,334.960571 920.224121,349.742157 903.531677,365.179535 
	C893.776672,374.201141 884.551147,383.873932 875.784485,393.865326 
	C865.073608,406.072357 855.093384,418.920410 844.487427,431.327026 
	C819.100281,403.405548 794.501343,375.197266 768.845581,347.985352 
	C716.224670,292.172913 661.373413,238.590332 604.198975,187.438690 
	C572.001953,158.633316 539.521912,130.093948 503.535187,105.979927 
	C495.624603,100.679184 486.821594,96.671951 478.252258,92.426888 
	C476.648468,91.632401 473.336517,91.771790 472.364014,92.862854 
	C471.186493,94.183929 470.849030,97.301025 471.562592,99.070511 
	C474.018799,105.161430 476.568542,111.328499 480.018738,116.885307 
	C496.458832,143.363144 516.172363,167.442490 536.896179,190.553284 
	C569.412598,226.814896 602.410095,262.670624 636.023987,297.916077 
	C677.687683,341.601959 721.313477,383.326172 766.257507,423.643921 
	C783.801025,439.381683 801.605957,454.828125 819.119873,470.756927 
	C815.286865,477.757233 811.625916,484.407867 807.559143,491.031586 
	C785.821960,486.265381 764.391052,484.679932 742.621277,487.886963 
	C719.041687,491.360565 697.058960,499.128693 676.474915,511.004456 
	C669.608215,514.966125 662.843811,519.105164 655.773926,522.891113 
	C655.163574,521.687988 654.717529,520.780884 654.473938,519.822327 
	C647.140137,490.963104 632.366882,466.192200 612.065186,444.782043 
	C596.420593,428.283234 578.123474,414.893127 557.636475,405.066833 
	C544.088318,398.568634 529.923889,393.146179 515.641602,388.435852 
	C492.740662,380.883087 469.140045,376.469177 444.921417,375.988403 
z"/>
<path fill="#FAEC70" opacity="1.000000" stroke="none" 
	d="
M1233.072510,706.182739 
	C1232.580811,706.596680 1232.154419,706.700195 1230.928223,706.810181 
	C1192.830688,705.507080 1157.994019,715.206238 1124.600708,730.848938 
	C1086.781128,748.565063 1054.049316,773.458496 1024.738770,802.993286 
	C1018.298828,809.482239 1012.232300,816.341797 1005.603638,822.921875 
	C1004.810730,821.308533 1004.117004,819.815247 1004.058533,818.297485 
	C1003.866455,813.314758 1004.193787,808.300232 1003.799927,803.339294 
	C1002.675110,789.169739 1001.534607,774.993164 999.931458,760.872559 
	C998.777710,750.709473 997.274048,740.548706 995.202881,730.536560 
	C992.456055,717.258545 989.004028,704.126465 985.928406,690.587097 
	C986.844910,688.824524 987.549561,687.298950 988.553589,686.005859 
	C995.370789,677.225830 1002.414673,668.617310 1009.077698,659.722961 
	C1023.900391,639.936218 1038.633911,620.081177 1053.229248,600.126221 
	C1064.498169,584.719055 1075.726440,569.272888 1086.565918,553.563232 
	C1100.223877,533.768860 1113.606567,513.780334 1126.849609,493.705078 
	C1139.187744,475.001831 1151.659180,456.359375 1163.210571,437.171570 
	C1176.218872,415.563629 1188.834595,393.673676 1200.502808,371.322662 
	C1206.979126,358.916992 1211.373657,345.393250 1216.198486,332.187866 
	C1217.001831,329.989441 1215.894409,326.264252 1214.319092,324.364532 
	C1213.494751,323.370361 1209.191284,324.031494 1207.397095,325.286224 
	C1200.074951,330.406494 1192.617676,335.516083 1186.136841,341.614319 
	C1176.212036,350.953247 1166.801880,360.877625 1157.628174,370.967010 
	C1145.119751,384.723877 1132.724976,398.609009 1120.854858,412.914825 
	C1106.236328,430.532990 1091.783203,448.320923 1078.012695,466.603516 
	C1049.957764,503.850830 1022.283997,541.387756 994.709717,578.993408 
	C983.143005,594.768005 972.227966,611.020386 960.712891,626.880493 
	C955.818481,618.876709 951.527954,610.851624 946.565735,603.265808 
	C939.314880,592.181213 931.656677,581.359192 924.020874,570.531982 
	C920.514771,565.560486 916.649109,560.842590 913.119141,555.719849 
	C936.367798,536.217468 953.645020,512.658630 964.417053,484.707123 
	C976.268372,453.955170 980.394165,422.007782 978.256042,389.007446 
	C977.027039,370.039551 973.922852,351.515198 969.798279,333.069824 
	C968.605774,327.736786 967.224304,322.446045 965.929443,317.135925 
	C984.497498,307.493927 1002.734436,297.130615 1021.725891,288.410828 
	C1041.102661,279.514191 1061.780640,274.070801 1082.845947,270.621643 
	C1103.905151,267.173523 1125.012329,265.971893 1146.398682,268.592316 
	C1167.421387,271.168182 1187.478516,276.416046 1206.504883,285.654968 
	C1237.945679,300.922302 1262.151001,323.928894 1280.062012,353.860748 
	C1292.410767,374.497284 1300.585449,396.700409 1305.402832,420.116821 
	C1310.451050,444.654968 1311.954834,469.473511 1310.338257,494.537323 
	C1309.072632,514.158081 1306.391479,533.510071 1302.073730,552.674438 
	C1296.726929,576.405945 1289.086182,599.385376 1279.607666,621.758362 
	C1267.305542,650.795532 1252.120361,678.252930 1234.042969,704.103333 
	C1233.666992,704.640930 1233.436523,705.280396 1233.072510,706.182739 
z"/>
<path fill="#90AEAC" opacity="1.000000" stroke="none" 
	d="
M529.690186,793.921875 
	C529.766357,793.512390 529.842529,793.102905 530.308350,792.321777 
	C540.480225,783.781311 550.778381,776.146179 559.916504,767.311218 
	C571.841431,755.781738 583.669250,743.961365 594.028015,731.053711 
	C605.391052,716.894592 615.757446,701.795349 625.197510,686.278015 
	C632.657227,674.016052 638.504822,660.696411 644.265137,647.495972 
	C652.387756,628.882080 657.498901,609.370972 659.425598,588.992798 
	C659.796387,588.293640 659.897583,587.646851 659.998535,586.536072 
	C660.026123,581.745239 660.053894,577.418335 660.311584,573.065491 
	C660.541443,573.039551 661.002441,573.002136 661.400146,573.003174 
	C662.776672,573.143188 663.805969,573.132690 664.726624,573.443787 
	C678.168335,577.985352 691.404236,583.285706 705.080627,586.940674 
	C718.427551,590.507507 732.220947,592.403992 745.872437,595.285889 
	C745.967163,595.704895 746.007812,595.871887 745.995117,596.456055 
	C743.990662,620.719177 741.682739,644.542725 740.190002,668.417175 
	C738.737122,691.653870 737.936584,714.936829 737.192261,738.210449 
	C736.601562,756.681396 736.160156,775.171631 736.301636,793.648315 
	C736.599854,832.601807 737.086548,871.557251 737.961914,910.501465 
	C738.485046,933.775879 739.598083,957.047852 740.983948,980.288879 
	C742.309143,1002.512634 743.662231,1024.772827 746.242065,1046.872559 
	C748.624756,1067.284302 752.447327,1087.541016 756.094238,1107.783447 
	C757.020447,1112.924438 759.259705,1117.972900 761.677429,1122.660767 
	C764.125488,1127.407349 768.127136,1127.385010 770.739746,1122.746338 
	C772.918213,1118.878418 774.765259,1114.682739 775.927673,1110.406250 
	C783.544128,1082.385498 786.059143,1053.552856 788.833862,1024.802734 
	C790.653320,1005.950073 791.873108,987.024597 792.795898,968.104187 
	C794.100403,941.353821 795.179260,914.584961 795.798523,887.811157 
	C796.333862,864.664795 796.077759,841.500488 796.205505,818.344238 
	C796.243164,811.523010 796.396301,804.702454 796.801819,797.982300 
	C810.978943,817.625549 827.032166,834.909302 847.344177,848.044556 
	C871.834045,863.881470 898.562012,873.251099 927.497620,875.912354 
	C940.056335,877.067444 952.750732,876.747986 965.302979,877.460205 
	C962.662781,882.262207 960.115967,886.709900 957.541138,891.141296 
	C943.307434,915.638123 931.210693,941.135437 921.545837,967.780457 
	C912.872070,991.693115 906.045166,1016.084045 901.685547,1041.178345 
	C898.297241,1060.681274 895.597107,1080.217896 895.942627,1100.069336 
	C895.904968,1100.854248 895.867310,1101.639282 895.696289,1102.795410 
	C892.605591,1105.124512 889.434143,1106.825317 886.724426,1109.080933 
	C862.190247,1129.502686 834.769165,1144.153931 803.445496,1151.075073 
	C776.706604,1156.982910 750.061401,1156.611572 723.536987,1149.722778 
	C693.379700,1141.890259 666.839172,1127.218628 643.402588,1106.875000 
	C635.756836,1100.238159 628.608582,1093.028320 620.873657,1085.933105 
	C620.023132,1085.015869 619.531738,1084.245972 618.989685,1082.809937 
	C617.971619,1079.347046 617.148865,1076.490112 616.012634,1073.763794 
	C609.948059,1059.211914 604.246704,1044.486938 597.585999,1030.210815 
	C587.581299,1008.767578 574.578247,989.047058 560.747192,969.903625 
	C557.629578,965.588501 553.627136,961.912720 550.032043,957.942627 
	C550.032043,957.942627 549.995056,957.986572 550.039185,957.672974 
	C549.737427,956.851440 549.391602,956.343628 549.045715,955.835754 
	C548.461426,954.757202 547.877075,953.678589 547.249634,951.997681 
	C547.270264,951.072388 547.462952,950.710693 547.379150,950.431946 
	C540.489563,927.506714 535.769531,904.150452 532.713013,880.401855 
	C529.012390,851.648315 527.822998,822.849182 529.690186,793.921875 
z"/>
<path fill="#C7C081" opacity="1.000000" stroke="none" 
	d="
M965.696716,317.084106 
	C967.224304,322.446045 968.605774,327.736786 969.798279,333.069824 
	C973.922852,351.515198 977.027039,370.039551 978.256042,389.007446 
	C980.394165,422.007782 976.268372,453.955170 964.417053,484.707123 
	C953.645020,512.658630 936.367798,536.217468 912.875000,555.719666 
	C912.458252,556.009277 911.968689,556.015198 911.678711,555.856567 
	C896.183228,540.071289 880.367859,525.147522 861.448059,513.999939 
	C844.696167,504.129700 827.480469,495.287262 807.991272,491.764618 
	C807.982544,491.529236 807.964905,491.058502 807.964905,491.058502 
	C811.625916,484.407867 815.286865,477.757233 819.473572,470.809326 
	C834.673523,481.915375 848.998718,493.810883 864.143127,504.551331 
	C874.479370,511.881897 885.857849,517.786255 897.021301,523.867554 
	C899.053101,524.974365 902.817932,524.684692 904.778015,523.447693 
	C905.897217,522.741394 905.642700,518.593445 904.883179,516.380920 
	C900.020020,502.214996 891.052002,490.390686 882.143250,478.678253 
	C870.001648,462.715668 857.273743,447.199097 844.797241,431.491272 
	C855.093384,418.920410 865.073608,406.072357 875.784485,393.865326 
	C884.551147,383.873932 893.776672,374.201141 903.531677,365.179535 
	C920.224121,349.742157 937.515015,334.960571 956.955566,322.944672 
	C959.622864,321.296051 962.115173,319.364410 964.841431,317.256714 
	C964.994385,316.949615 965.463989,317.032318 965.696716,317.084106 
z"/>
<path fill="#6A3F21" opacity="1.000000" stroke="none" 
	d="
M438.906036,1205.119019 
	C420.538422,1189.452881 402.349243,1174.122681 384.375397,1158.544312 
	C371.424103,1147.318848 358.567139,1135.969849 346.008209,1124.309570 
	C321.971100,1101.992676 297.990723,1079.608154 274.337921,1056.886230 
	C254.397949,1037.730835 234.445450,1018.541443 215.422989,998.490112 
	C192.292877,974.108948 169.622162,949.244934 147.764908,923.722900 
	C136.691025,910.792358 127.690544,896.058960 118.103096,881.903259 
	C115.911461,878.667419 112.758965,873.750916 116.624260,870.684387 
	C118.833572,868.931641 124.536896,869.661133 127.621376,871.273499 
	C139.541428,877.504333 151.742249,883.577942 162.558701,891.465149 
	C189.423950,911.055054 215.933578,931.173889 241.918396,951.916626 
	C261.929138,967.890625 281.213562,984.813416 300.304230,1001.891907 
	C328.089233,1026.748291 355.764740,1051.749146 382.829346,1077.382690 
	C410.520447,1103.609497 437.959839,1130.148926 464.500702,1157.529297 
	C487.653198,1181.414062 509.782135,1206.329346 531.605103,1231.447998 
	C542.029968,1243.447144 550.872864,1256.849854 560.040955,1269.891968 
	C562.450134,1273.319214 563.772217,1277.669067 564.910034,1281.784180 
	C565.933533,1285.485962 563.757202,1288.064697 560.008667,1286.943970 
	C553.709473,1285.060669 547.258179,1283.050781 541.576355,1279.844116 
	C511.468964,1262.851807 484.535919,1241.330688 457.501770,1219.981567 
	C451.367279,1215.137085 445.283722,1210.228027 438.906036,1205.119019 
z"/>
<path fill="#AD5F48" opacity="1.000000" stroke="none" 
	d="
M102.138535,844.297668 
	C113.808784,832.156494 127.364922,822.672119 142.160675,814.942017 
	C166.653290,802.145996 192.793930,795.269104 220.281601,792.888611 
	C267.557007,788.794434 312.897644,797.029114 357.068481,813.459106 
	C381.934174,822.708313 405.510986,834.547485 428.237732,848.155396 
	C428.803711,848.494324 429.295288,848.957520 430.046509,849.633667 
	C427.404999,851.472290 424.663727,853.352661 421.652405,854.558716 
	C396.054321,864.811401 369.883514,873.388245 342.759125,878.411499 
	C324.888641,881.721008 306.807709,884.339844 288.702606,885.807129 
	C271.675323,887.187134 254.434158,887.681396 237.392502,886.712036 
	C212.897217,885.318665 188.741058,881.035339 165.120285,873.964783 
	C145.274551,868.024292 126.610466,859.539001 108.705368,849.263672 
	C106.428108,847.956726 104.430443,846.162720 102.138535,844.297668 
z"/>
<path fill="#EFEFEF" opacity="1.000000" stroke="none" 
	d="
M529.357910,793.967834 
	C527.822998,822.849182 529.012390,851.648315 532.713013,880.401855 
	C535.769531,904.150452 540.489563,927.506714 547.379150,950.431946 
	C547.462952,950.710693 547.270264,951.072388 547.128479,951.709106 
	C542.914612,947.302734 538.777100,942.584290 534.643494,937.862427 
	C505.359650,904.411255 471.804474,875.954041 434.350372,852.050720 
	C433.813202,851.707947 433.402435,851.166992 432.789154,850.393005 
	C456.593658,839.038513 480.078125,827.139954 502.029510,812.445435 
	C510.145599,807.012512 518.024231,801.225464 526.033630,795.632019 
	C526.957214,794.987061 528.024841,794.548218 529.357910,793.967834 
z"/>
<path fill="#886B58" opacity="1.000000" stroke="none" 
	d="
M550.026978,958.336975 
	C553.627136,961.912720 557.629578,965.588501 560.747192,969.903625 
	C574.578247,989.047058 587.581299,1008.767578 597.585999,1030.210815 
	C604.246704,1044.486938 609.948059,1059.211914 616.012634,1073.763794 
	C617.148865,1076.490112 617.971619,1079.347046 618.935059,1082.516968 
	C612.703796,1075.389893 605.862000,1068.308960 600.391113,1060.292358 
	C591.898499,1047.847656 583.749451,1035.088745 576.522522,1021.878845 
	C565.532837,1001.791138 556.440002,980.793701 550.026978,958.336975 
z"/>
<path fill="#886B58" opacity="1.000000" stroke="none" 
	d="
M549.059204,956.155640 
	C549.391602,956.343628 549.737427,956.851440 550.067444,957.678101 
	C549.725220,957.489685 549.398926,956.982605 549.059204,956.155640 
z"/>
<path fill="#902D5B" opacity="1.000000" stroke="none" 
	d="
M1203.871826,994.816833 
	C1196.900879,1008.777527 1190.084229,1022.403381 1183.158203,1035.973511 
	C1175.456299,1051.063721 1167.842773,1066.203613 1159.853149,1081.141479 
	C1147.808594,1103.660645 1135.895996,1126.268188 1123.149292,1148.389893 
	C1107.482788,1175.578979 1091.358398,1202.520264 1074.763672,1229.152222 
	C1065.208008,1244.487671 1054.759888,1259.322876 1043.878174,1273.753418 
	C1038.037476,1281.499023 1030.522339,1288.006836 1023.531067,1294.835815 
	C1022.345642,1295.993652 1019.127930,1296.935913 1018.347168,1296.256348 
	C1016.701599,1294.824463 1014.946838,1292.122437 1015.176758,1290.170044 
	C1016.239990,1281.142700 1016.962830,1271.878174 1019.661621,1263.280518 
	C1025.821899,1243.656128 1032.562622,1224.176758 1040.002930,1205.001343 
	C1048.528931,1183.027710 1057.721558,1161.294067 1067.255981,1139.735352 
	C1078.208008,1114.971436 1089.541016,1090.363647 1101.283691,1065.964966 
	C1112.887939,1041.854126 1124.997803,1017.978882 1137.276001,994.201782 
	C1149.913574,969.728821 1162.561523,945.240601 1176.039185,921.227295 
	C1193.684814,889.787720 1211.629761,858.489563 1230.453003,827.747131 
	C1241.959473,808.954590 1255.081909,791.120178 1268.040161,773.262939 
	C1273.176880,766.184387 1279.586792,759.949341 1285.951050,753.891296 
	C1287.849976,752.083862 1292.082275,750.914246 1294.270630,751.816589 
	C1295.928833,752.500305 1297.213989,757.209229 1296.647339,759.660339 
	C1293.029297,775.310120 1289.729980,791.124207 1284.646362,806.322632 
	C1277.590942,827.416809 1269.389038,848.150452 1261.057373,868.787903 
	C1253.853027,886.633179 1246.037598,904.245361 1238.033691,921.750977 
	C1226.906006,946.088989 1215.350220,970.231323 1203.871826,994.816833 
z"/>
<path fill="#AE615C" opacity="1.000000" stroke="none" 
	d="
M1005.993774,823.030701 
	C1012.232300,816.341797 1018.298828,809.482239 1024.738770,802.993286 
	C1054.049316,773.458496 1086.781128,748.565063 1124.600708,730.848938 
	C1157.994019,715.206238 1192.830688,705.507080 1230.603271,706.873657 
	C1227.300903,712.534424 1224.003906,718.546326 1219.655029,723.664368 
	C1207.406494,738.079041 1194.907715,752.292297 1182.169434,766.277039 
	C1165.682251,784.377502 1147.119507,800.357971 1126.940552,814.017639 
	C1108.879883,826.243347 1089.560913,836.670776 1070.453125,847.271301 
	C1053.171509,856.858582 1034.353760,862.805908 1015.433777,868.278381 
	C1011.317383,869.469055 1007.042542,870.111816 1002.420532,870.547180 
	C1002.333618,862.859375 1002.628357,855.629211 1003.014404,848.403931 
	C1003.250793,843.979675 1003.892822,839.558777 1003.824524,835.144531 
	C1003.792236,833.060303 1002.518799,830.995361 1001.891235,828.596558 
	C1003.314392,826.524475 1004.654053,824.777588 1005.993774,823.030701 
z"/>
<path fill="#8C4E6F" opacity="1.000000" stroke="none" 
	d="
M896.290405,1100.010986 
	C895.597107,1080.217896 898.297241,1060.681274 901.685547,1041.178345 
	C906.045166,1016.084045 912.872070,991.693115 921.545837,967.780457 
	C931.210693,941.135437 943.307434,915.638123 957.541138,891.141296 
	C960.115967,886.709900 962.662781,882.262207 965.521545,877.401184 
	C966.117065,876.890808 966.413330,876.800598 967.137817,876.773193 
	C978.715454,875.233032 989.864563,873.629211 1001.013672,872.025391 
	C998.028320,889.784180 995.863586,907.732239 991.823730,925.247864 
	C987.886963,942.316895 982.406372,959.067688 976.880432,975.718201 
	C973.513062,985.864563 969.218628,995.771118 964.542480,1005.397644 
	C959.129883,1016.540405 953.605347,1027.767456 946.751709,1038.038696 
	C936.754456,1053.020996 925.836792,1067.426025 914.691223,1081.589111 
	C909.414978,1088.293823 902.700867,1093.866821 896.290405,1100.010986 
z"/>
<path fill="#A55C55" opacity="1.000000" stroke="none" 
	d="
M1001.224243,871.904419 
	C989.864563,873.629211 978.715454,875.233032 967.243774,876.451782 
	C969.506348,872.004028 971.827026,867.740906 974.725769,863.915894 
	C983.634216,852.161072 992.764038,840.573975 1001.807800,828.921692 
	C1002.518799,830.995361 1003.792236,833.060303 1003.824524,835.144531 
	C1003.892822,839.558777 1003.250793,843.979675 1003.014404,848.403931 
	C1002.628357,855.629211 1002.333618,862.859375 1002.002808,870.549194 
	C1001.889893,871.323669 1001.699768,871.581177 1001.224243,871.904419 
z"/>
<path fill="#A62C18" opacity="1.000000" stroke="none" 
	d="
M590.866150,534.833069 
	C565.794922,549.599243 541.171448,565.197388 515.569702,578.977905 
	C433.653595,623.070435 349.010773,661.398621 262.929474,696.599792 
	C219.381332,714.407837 175.525406,731.394714 130.510651,745.156372 
	C115.118256,749.862061 99.437325,753.714417 83.729126,757.249695 
	C77.877113,758.566650 71.531555,758.376953 65.484062,757.916138 
	C60.858246,757.563538 59.348877,754.021362 62.353218,750.530640 
	C66.870506,745.282104 71.623238,739.822571 77.346863,736.098999 
	C99.641037,721.594910 121.897575,706.929626 145.011475,693.810120 
	C194.201508,665.889587 245.036423,641.096191 296.589905,617.870789 
	C336.906921,599.707520 377.368225,581.788208 418.338745,565.174255 
	C456.344971,549.762268 495.078400,536.135803 533.566650,521.926392 
	C542.269714,518.713318 551.283325,516.341309 560.821899,513.542847 
	C561.927734,513.547241 562.365662,513.590942 563.082092,513.874634 
	C565.009949,515.473145 566.605347,516.904175 568.317749,518.177856 
	C575.815369,523.754456 583.346924,529.285522 590.866150,534.833069 
z"/>
<path fill="#BC948F" opacity="1.000000" stroke="none" 
	d="
M562.803528,513.634644 
	C562.365662,513.590942 561.927734,513.547241 561.186462,513.365967 
	C556.971130,509.736511 553.027283,506.279602 549.153259,502.746063 
	C537.881836,492.465149 526.039856,482.723633 515.541748,471.703552 
	C503.564850,459.131226 492.102448,445.929199 481.679474,432.052216 
	C469.265350,415.524139 458.175903,397.999908 446.576660,380.863861 
	C445.770538,379.672943 445.496277,378.122009 444.948059,376.363464 
	C469.140045,376.469177 492.740662,380.883087 515.641602,388.435852 
	C529.923889,393.146179 544.088318,398.568634 557.636475,405.066833 
	C578.123474,414.893127 596.420593,428.283234 612.065186,444.782043 
	C632.366882,466.192200 647.140137,490.963104 654.473938,519.822327 
	C654.717529,520.780884 655.163574,521.687988 655.760254,523.188904 
	C655.990295,524.159912 655.975403,524.561096 655.616577,525.012573 
	C650.850586,528.538635 646.270996,531.834290 642.043030,535.531921 
	C635.547241,541.213074 629.292908,547.170410 622.936096,553.010498 
	C618.285339,550.662048 613.495483,548.549133 609.018982,545.905640 
	C603.386169,542.579285 598.009583,538.819031 592.384766,534.790710 
	C595.321289,532.109863 598.638550,530.149658 601.419373,527.603577 
	C607.255676,522.260132 613.185425,516.932373 618.335632,510.959229 
	C621.305176,507.515228 619.646667,504.487701 615.177551,503.348938 
	C613.916870,503.027679 612.541504,503.016785 611.226807,503.068542 
	C594.889404,503.711334 579.290710,508.123901 563.687866,512.487061 
	C563.315247,512.591248 563.094910,513.239929 562.803528,513.634644 
z"/>
<path fill="#8A8079" opacity="1.000000" stroke="none" 
	d="
M659.156006,589.045166 
	C657.498901,609.370972 652.387756,628.882080 644.265137,647.495972 
	C638.504822,660.696411 632.657227,674.016052 625.197510,686.278015 
	C615.757446,701.795349 605.391052,716.894592 594.028015,731.053711 
	C583.669250,743.961365 571.841431,755.781738 559.916504,767.311218 
	C550.778381,776.146179 540.480225,783.781311 530.355896,792.013062 
	C531.768250,775.590088 532.572449,758.931702 535.524902,742.663269 
	C538.983032,723.608459 543.722656,704.727173 548.978088,686.072510 
	C555.526855,662.827026 565.183716,640.764771 576.594849,619.426514 
	C587.307861,599.393616 599.881897,580.700378 614.455261,563.322632 
	C617.019104,560.265442 619.897034,557.471680 623.163818,554.321777 
	C632.086792,558.212952 640.522095,562.248169 648.844360,566.504456 
	C652.703674,568.478271 656.342773,570.882385 660.081726,573.091431 
	C660.053894,577.418335 660.026123,581.745239 659.763672,586.716736 
	C659.404663,587.922607 659.280334,588.483887 659.156006,589.045166 
z"/>
<path fill="#9D5E54" opacity="1.000000" stroke="none" 
	d="
M563.082092,513.874634 
	C563.094910,513.239929 563.315247,512.591248 563.687866,512.487061 
	C579.290710,508.123901 594.889404,503.711334 611.226807,503.068542 
	C612.541504,503.016785 613.916870,503.027679 615.177551,503.348938 
	C619.646667,504.487701 621.305176,507.515228 618.335632,510.959229 
	C613.185425,516.932373 607.255676,522.260132 601.419373,527.603577 
	C598.638550,530.149658 595.321289,532.109863 592.076416,534.627319 
	C591.731628,534.916809 591.557556,534.914490 591.124756,534.872559 
	C583.346924,529.285522 575.815369,523.754456 568.317749,518.177856 
	C566.605347,516.904175 565.009949,515.473145 563.082092,513.874634 
z"/>
<path fill="#8E8985" opacity="1.000000" stroke="none" 
	d="
M660.311584,573.065491 
	C656.342773,570.882385 652.703674,568.478271 648.844360,566.504456 
	C640.522095,562.248169 632.086792,558.212952 623.344238,554.044861 
	C622.990723,554.002441 622.965454,553.506287 622.950806,553.258423 
	C629.292908,547.170410 635.547241,541.213074 642.043030,535.531921 
	C646.270996,531.834290 650.850586,528.538635 655.681335,525.408081 
	C660.272827,541.238281 660.567017,557.127563 661.002441,573.002136 
	C661.002441,573.002136 660.541443,573.039551 660.311584,573.065491 
z"/>
<path fill="#020202" opacity="1.000000" stroke="none" 
	d="
M844.487427,431.327026 
	C857.273743,447.199097 870.001648,462.715668 882.143250,478.678253 
	C891.052002,490.390686 900.020020,502.214996 904.883179,516.380920 
	C905.642700,518.593445 905.897217,522.741394 904.778015,523.447693 
	C902.817932,524.684692 899.053101,524.974365 897.021301,523.867554 
	C885.857849,517.786255 874.479370,511.881897 864.143127,504.551331 
	C848.998718,493.810883 834.673523,481.915375 819.645508,470.459656 
	C801.605957,454.828125 783.801025,439.381683 766.257507,423.643921 
	C721.313477,383.326172 677.687683,341.601959 636.023987,297.916077 
	C602.410095,262.670624 569.412598,226.814896 536.896179,190.553284 
	C516.172363,167.442490 496.458832,143.363144 480.018738,116.885307 
	C476.568542,111.328499 474.018799,105.161430 471.562592,99.070511 
	C470.849030,97.301025 471.186493,94.183929 472.364014,92.862854 
	C473.336517,91.771790 476.648468,91.632401 478.252258,92.426888 
	C486.821594,96.671951 495.624603,100.679184 503.535187,105.979927 
	C539.521912,130.093948 572.001953,158.633316 604.198975,187.438690 
	C661.373413,238.590332 716.224670,292.172913 768.845581,347.985352 
	C794.501343,375.197266 819.100281,403.405548 844.487427,431.327026 
z"/>
<path fill="#91A09F" opacity="1.000000" stroke="none" 
	d="
M661.400146,573.003174 
	C660.567017,557.127563 660.272827,541.238281 656.025269,525.357788 
	C655.975403,524.561096 655.990295,524.159912 656.018921,523.460938 
	C662.843811,519.105164 669.608215,514.966125 676.474915,511.004456 
	C697.058960,499.128693 719.041687,491.360565 742.621277,487.886963 
	C764.391052,484.679932 785.821960,486.265381 807.559143,491.031586 
	C807.964905,491.058502 807.982544,491.529236 807.729675,491.986542 
	C802.750488,502.433929 797.681885,512.279785 793.394958,522.455078 
	C789.179932,532.459656 785.758362,542.798523 781.740295,553.007568 
	C781.492004,553.024353 780.995605,553.061584 780.933716,552.665710 
	C780.598938,551.144409 780.351074,550.012268 780.049133,548.894714 
	C777.552856,539.653809 775.367798,530.308105 772.334595,521.246521 
	C771.496887,518.744141 768.389648,516.400146 765.780212,515.396423 
	C764.776123,515.010193 761.198425,518.261475 760.603699,520.366760 
	C757.106812,532.745483 753.623535,545.173157 751.150452,557.783325 
	C748.739746,570.075928 747.546265,582.607239 745.818359,595.033752 
	C732.220947,592.403992 718.427551,590.507507 705.080627,586.940674 
	C691.404236,583.285706 678.168335,577.985352 664.726624,573.443787 
	C663.805969,573.132690 662.776672,573.143188 661.400146,573.003174 
z"/>
<path fill="#DBD65A" opacity="1.000000" stroke="none" 
	d="
M1001.891235,828.596558 
	C992.764038,840.573975 983.634216,852.161072 974.725769,863.915894 
	C971.827026,867.740906 969.506348,872.004028 966.815308,876.388184 
	C966.413330,876.800598 966.117065,876.890808 965.602051,877.039307 
	C952.750732,876.747986 940.056335,877.067444 927.497620,875.912354 
	C898.562012,873.251099 871.834045,863.881470 847.344177,848.044556 
	C827.032166,834.909302 810.978943,817.625549 796.729492,797.645264 
	C796.136719,796.316223 795.921509,795.424988 795.802307,794.024658 
	C795.587769,766.400574 795.333130,739.284790 794.932007,712.171204 
	C794.814209,704.209167 794.426880,696.243713 793.908386,688.296387 
	C792.689453,669.613831 791.384277,650.936218 789.981323,632.266541 
	C789.125427,620.876953 788.023315,609.505798 787.038696,598.103882 
	C787.045654,598.081360 787.038025,598.034912 787.504028,598.037720 
	C795.096558,597.696289 802.312622,597.943054 809.330322,596.879944 
	C822.402527,594.899353 835.651672,593.153809 848.281738,589.450500 
	C860.929810,585.742065 873.343445,580.593506 885.050354,574.516602 
	C894.640320,569.538635 903.040894,562.268982 911.968689,556.015198 
	C911.968689,556.015198 912.458252,556.009277 912.702393,556.009460 
	C916.649109,560.842590 920.514771,565.560486 924.020874,570.531982 
	C931.656677,581.359192 939.314880,592.181213 946.565735,603.265808 
	C951.527954,610.851624 955.818481,618.876709 960.664246,627.221558 
	C954.918091,636.872925 948.807739,645.938660 942.937622,655.157349 
	C929.311523,676.556458 915.434998,697.808899 902.360657,719.542358 
	C891.960022,736.831177 882.482544,754.681824 872.811523,772.401062 
	C865.744812,785.348816 859.090210,798.536133 856.531555,813.267090 
	C856.158081,815.417236 856.613342,819.053772 857.946167,819.825989 
	C859.702454,820.843506 863.015198,820.371826 865.122742,819.389954 
	C878.068542,813.358887 887.306274,802.536560 897.156372,792.833923 
	C910.256592,779.929749 922.269409,765.893433 934.380859,752.021790 
	C945.825439,738.913940 956.780762,725.379395 967.975647,712.052979 
	C973.908752,704.990051 979.893555,697.970642 985.854980,690.931641 
	C989.004028,704.126465 992.456055,717.258545 995.202881,730.536560 
	C997.274048,740.548706 998.777710,750.709473 999.931458,760.872559 
	C1001.534607,774.993164 1002.675110,789.169739 1003.799927,803.339294 
	C1004.193787,808.300232 1003.866455,813.314758 1004.058533,818.297485 
	C1004.117004,819.815247 1004.810730,821.308533 1005.603638,822.921875 
	C1004.654053,824.777588 1003.314392,826.524475 1001.891235,828.596558 
z"/>
<path fill="#F1BB46" opacity="1.000000" stroke="none" 
	d="
M985.928345,690.587036 
	C979.893555,697.970642 973.908752,704.990051 967.975647,712.052979 
	C956.780762,725.379395 945.825439,738.913940 934.380859,752.021790 
	C922.269409,765.893433 910.256592,779.929749 897.156372,792.833923 
	C887.306274,802.536560 878.068542,813.358887 865.122742,819.389954 
	C863.015198,820.371826 859.702454,820.843506 857.946167,819.825989 
	C856.613342,819.053772 856.158081,815.417236 856.531555,813.267090 
	C859.090210,798.536133 865.744812,785.348816 872.811523,772.401062 
	C882.482544,754.681824 891.960022,736.831177 902.360657,719.542358 
	C915.434998,697.808899 929.311523,676.556458 942.937622,655.157349 
	C948.807739,645.938660 954.918091,636.872925 960.967957,627.396606 
	C972.227966,611.020386 983.143005,594.768005 994.709717,578.993408 
	C1022.283997,541.387756 1049.957764,503.850830 1078.012695,466.603516 
	C1091.783203,448.320923 1106.236328,430.532990 1120.854858,412.914825 
	C1132.724976,398.609009 1145.119751,384.723877 1157.628174,370.967010 
	C1166.801880,360.877625 1176.212036,350.953247 1186.136841,341.614319 
	C1192.617676,335.516083 1200.074951,330.406494 1207.397095,325.286224 
	C1209.191284,324.031494 1213.494751,323.370361 1214.319092,324.364532 
	C1215.894409,326.264252 1217.001831,329.989441 1216.198486,332.187866 
	C1211.373657,345.393250 1206.979126,358.916992 1200.502808,371.322662 
	C1188.834595,393.673676 1176.218872,415.563629 1163.210571,437.171570 
	C1151.659180,456.359375 1139.187744,475.001831 1126.849609,493.705078 
	C1113.606567,513.780334 1100.223877,533.768860 1086.565918,553.563232 
	C1075.726440,569.272888 1064.498169,584.719055 1053.229248,600.126221 
	C1038.633911,620.081177 1023.900391,639.936218 1009.077698,659.722961 
	C1002.414673,668.617310 995.370789,677.225830 988.553589,686.005859 
	C987.549561,687.298950 986.844910,688.824524 985.928345,690.587036 
z"/>
<path fill="#2E6B65" opacity="1.000000" stroke="none" 
	d="
M795.706299,794.533752 
	C795.921509,795.424988 796.136719,796.316223 796.424194,797.544556 
	C796.396301,804.702454 796.243164,811.523010 796.205505,818.344238 
	C796.077759,841.500488 796.333862,864.664795 795.798523,887.811157 
	C795.179260,914.584961 794.100403,941.353821 792.795898,968.104187 
	C791.873108,987.024597 790.653320,1005.950073 788.833862,1024.802734 
	C786.059143,1053.552856 783.544128,1082.385498 775.927673,1110.406250 
	C774.765259,1114.682739 772.918213,1118.878418 770.739746,1122.746338 
	C768.127136,1127.385010 764.125488,1127.407349 761.677429,1122.660767 
	C759.259705,1117.972900 757.020447,1112.924438 756.094238,1107.783447 
	C752.447327,1087.541016 748.624756,1067.284302 746.242065,1046.872559 
	C743.662231,1024.772827 742.309143,1002.512634 740.983948,980.288879 
	C739.598083,957.047852 738.485046,933.775879 737.961914,910.501465 
	C737.086548,871.557251 736.599854,832.601807 736.301636,793.648315 
	C736.160156,775.171631 736.601562,756.681396 737.192261,738.210449 
	C737.936584,714.936829 738.737122,691.653870 740.190002,668.417175 
	C741.682739,644.542725 743.990662,620.719177 746.423401,596.450256 
	C754.234985,596.692688 761.565063,597.358154 768.898254,598.367676 
	C768.805969,599.160400 768.710571,599.609131 768.459167,600.265015 
	C768.238831,600.984680 768.174500,601.497253 768.053345,602.427368 
	C766.237427,616.792542 763.920776,630.696472 762.823792,644.696045 
	C759.563110,686.306580 763.667114,727.022339 780.266785,765.746338 
	C784.540588,775.716309 790.513794,784.957703 795.706299,794.533752 
z"/>
<path fill="#5F7F7B" opacity="1.000000" stroke="none" 
	d="
M768.895142,598.023621 
	C761.565063,597.358154 754.234985,596.692688 746.476685,596.032959 
	C746.007812,595.871887 745.967163,595.704895 745.872437,595.285889 
	C747.546265,582.607239 748.739746,570.075928 751.150452,557.783325 
	C753.623535,545.173157 757.106812,532.745483 760.603699,520.366760 
	C761.198425,518.261475 764.776123,515.010193 765.780212,515.396423 
	C768.389648,516.400146 771.496887,518.744141 772.334595,521.246521 
	C775.367798,530.308105 777.552856,539.653809 780.049133,548.894714 
	C780.351074,550.012268 780.598938,551.144409 780.877197,553.041809 
	C779.878967,557.303101 778.747498,560.761536 777.895447,564.287354 
	C775.187195,575.494202 772.583069,586.726074 769.678711,597.980652 
	C769.244263,598.016541 769.069702,598.020081 768.895142,598.023621 
z"/>
<path fill="#91A09F" opacity="1.000000" stroke="none" 
	d="
M659.425598,588.992798 
	C659.280334,588.483887 659.404663,587.922607 659.763916,587.180664 
	C659.897583,587.646851 659.796387,588.293640 659.425598,588.992798 
z"/>
<path fill="#B7B575" opacity="1.000000" stroke="none" 
	d="
M911.678711,555.856567 
	C903.040894,562.268982 894.640320,569.538635 885.050354,574.516602 
	C873.343445,580.593506 860.929810,585.742065 848.281738,589.450500 
	C835.651672,593.153809 822.402527,594.899353 809.330322,596.879944 
	C802.312622,597.943054 795.096558,597.696289 787.477051,597.613708 
	C785.318909,582.454773 783.653809,567.722778 781.988647,552.990723 
	C785.758362,542.798523 789.179932,532.459656 793.394958,522.455078 
	C797.681885,512.279785 802.750488,502.433929 807.738403,492.221924 
	C827.480469,495.287262 844.696167,504.129700 861.448059,513.999939 
	C880.367859,525.147522 896.183228,540.071289 911.678711,555.856567 
z"/>
<path fill="#A5A96B" opacity="1.000000" stroke="none" 
	d="
M781.740356,553.007568 
	C783.653809,567.722778 785.318909,582.454773 787.011047,597.610840 
	C787.038025,598.034912 787.045654,598.081360 786.568359,598.066895 
	C780.706970,598.017761 775.322754,597.983032 769.938599,597.948303 
	C772.583069,586.726074 775.187195,575.494202 777.895447,564.287354 
	C778.747498,560.761536 779.878967,557.303101 780.939087,553.437683 
	C780.995605,553.061584 781.492004,553.024353 781.740356,553.007568 
z"/>
<path fill="#BAC044" opacity="1.000000" stroke="none" 
	d="
M769.678711,597.980652 
	C775.322754,597.983032 780.706970,598.017761 786.561401,598.089478 
	C788.023315,609.505798 789.125427,620.876953 789.981323,632.266541 
	C791.384277,650.936218 792.689453,669.613831 793.908386,688.296387 
	C794.426880,696.243713 794.814209,704.209167 794.932007,712.171204 
	C795.333130,739.284790 795.587769,766.400574 795.802368,794.024658 
	C790.513794,784.957703 784.540588,775.716309 780.266785,765.746338 
	C763.667114,727.022339 759.563110,686.306580 762.823792,644.696045 
	C763.920776,630.696472 766.237427,616.792542 768.249390,602.236450 
	C768.539856,601.104675 768.577515,600.581238 768.615173,600.057861 
	C768.710571,599.609131 768.805969,599.160400 768.898254,598.367676 
	C769.069702,598.020081 769.244263,598.016541 769.678711,597.980652 
z"/>
<path fill="#5F7F7B" opacity="1.000000" stroke="none" 
	d="
M768.459167,600.265015 
	C768.577515,600.581238 768.539856,601.104675 768.306152,601.818970 
	C768.174500,601.497253 768.238831,600.984680 768.459167,600.265015 
z"/>
</svg>