<svg version="1.1" id="Layer_1" xmlns="http://www.w3.org/2000/svg" xmlns:xlink="http://www.w3.org/1999/xlink" x="0px" y="0px"
	 width="100%" viewBox="0 0 1920 1080" enable-background="new 0 0 1920 1080" xml:space="preserve">
<path fill="#F0F0F0" opacity="1.000000" stroke="none" 
	d="
M1408.000000,1081.000000 
	C938.666748,1081.000000 469.833496,1081.000000 1.000189,1081.000000 
	C1.000126,721.000122 1.000126,361.000305 1.000063,1.000334 
	C640.999756,1.000222 1280.999512,1.000222 1920.999512,1.000111 
	C1920.999634,360.999664 1920.999634,720.999329 1920.999756,1080.999512 
	C1750.166626,1081.000000 1579.333374,1081.000000 1408.000000,1081.000000 
M1124.034302,284.178406 
	C1119.401489,272.255280 1115.531128,259.964722 1109.995117,248.476913 
	C1092.393188,211.951736 1068.176270,180.354950 1037.938354,153.226440 
	C1011.922302,129.885590 983.241211,110.927414 950.772400,97.950462 
	C914.662598,83.518311 877.449890,76.356888 838.675171,84.090813 
	C799.159851,91.972488 768.922180,113.085121 750.836548,149.655014 
	C734.843933,181.992661 734.018066,216.197556 740.532715,250.941284 
	C744.979492,274.656616 753.343506,297.022186 764.592651,318.343109 
	C765.651367,320.349792 766.174561,322.638977 766.104126,324.826294 
	C762.793152,324.591095 759.453247,323.953217 756.176086,324.188538 
	C739.622803,325.377411 722.847656,325.459106 706.584839,328.362762 
	C639.110046,340.410095 580.715454,370.261108 533.387878,420.337128 
	C511.655731,443.331421 494.846436,469.595673 485.501678,500.099243 
	C475.170593,533.822510 475.684357,566.998169 492.088806,598.956543 
	C501.881226,618.033691 516.486389,632.863220 533.711670,645.602722 
	C526.749939,654.898376 518.685669,663.573364 513.036743,673.608093 
	C497.167694,701.797607 494.267975,732.667603 498.309998,764.097351 
	C501.309418,787.419739 508.305908,809.875671 518.691589,831.072449 
	C552.088501,899.234497 603.720337,948.725098 672.663696,980.108826 
	C702.533142,993.705688 734.130554,1000.493469 766.944580,1000.841125 
	C774.637146,1000.922607 782.361572,999.091980 790.052979,998.010010 
	C823.141235,993.355469 850.780579,978.695190 871.441223,952.224121 
	C896.118286,920.607056 901.112244,883.992981 896.379639,845.484375 
	C894.906982,833.500793 891.437439,821.762695 889.516907,810.194153 
	C897.054749,816.984070 904.181885,824.310486 912.211792,830.457642 
	C931.913574,845.540100 954.109741,855.052856 979.041504,856.875183 
	C1011.764832,859.267090 1040.661499,848.992310 1066.427002,829.139038 
	C1069.556763,826.727478 1072.751953,824.400879 1075.980835,822.963318 
	C1076.656372,833.024658 1077.101074,843.108032 1078.058350,853.142456 
	C1079.724365,870.603577 1084.315063,887.363831 1090.910278,903.597351 
	C1114.396851,961.407532 1169.594238,994.433228 1234.063232,981.192322 
	C1269.411987,973.932190 1299.761841,956.910400 1326.864380,933.711731 
	C1362.566162,903.152527 1388.788452,865.594849 1407.473267,822.650696 
	C1420.024048,793.804688 1428.264160,763.741943 1430.824097,732.371887 
	C1431.870361,719.548889 1431.790527,706.509216 1430.797363,693.678528 
	C1429.737427,679.987793 1428.009644,666.180359 1424.771240,652.862061 
	C1418.274170,626.143311 1405.524292,602.550476 1385.418701,583.391174 
	C1363.491699,562.496216 1336.985107,552.419006 1307.277954,550.190063 
	C1307.906616,549.210144 1308.519287,548.219543 1309.166260,547.251770 
	C1336.303223,506.660889 1354.757568,462.836975 1359.175293,413.718872 
	C1361.772705,384.837738 1359.503906,356.575470 1348.655151,329.430878 
	C1330.015625,282.792664 1291.305664,254.633881 1241.165649,251.177338 
	C1219.722534,249.699081 1198.787354,253.181992 1178.286255,259.687378 
	C1159.116577,265.770264 1141.363159,274.751831 1124.034302,284.178406 
z"/>
<path fill="#B28775" opacity="1.000000" stroke="none" 
	d="
M888.882019,809.912170 
	C891.437439,821.762695 894.906982,833.500793 896.379639,845.484375 
	C901.112244,883.992981 896.118286,920.607056 871.441223,952.224121 
	C850.780579,978.695190 823.141235,993.355469 790.052979,998.010010 
	C782.361572,999.091980 774.637146,1000.922607 766.944580,1000.841125 
	C734.130554,1000.493469 702.533142,993.705688 672.663696,980.108826 
	C603.720337,948.725098 552.088501,899.234497 518.691589,831.072449 
	C508.305908,809.875671 501.309418,787.419739 498.309998,764.097351 
	C494.267975,732.667603 497.167694,701.797607 513.036743,673.608093 
	C518.685669,663.573364 526.749939,654.898376 534.073364,645.286560 
	C534.435120,644.970398 534.885803,644.940002 535.100830,645.211792 
	C543.805420,650.015564 552.017090,655.203369 560.842163,658.944031 
	C579.734375,666.951904 599.528076,671.520691 620.069397,673.172119 
	C640.519348,674.816223 660.966736,674.925049 681.125122,671.534607 
	C698.069092,668.684753 714.816284,664.352600 731.391968,659.746094 
	C740.900818,657.103516 749.894226,652.606323 759.354919,649.060791 
	C760.047668,649.427368 760.505127,649.677124 761.288330,650.058350 
	C785.427063,665.265137 806.930603,683.095398 825.876526,703.988037 
	C829.866150,708.387512 833.958679,712.693848 838.009155,717.016113 
	C838.014648,716.989197 837.960083,716.982300 837.967407,717.260071 
	C838.017273,717.718140 838.059753,717.898438 838.222778,718.344238 
	C838.904236,719.399048 839.465149,720.188354 840.133789,721.203186 
	C840.434082,721.718628 840.696350,721.915894 841.005615,722.017334 
	C840.982910,722.014221 840.988159,721.968628 840.983704,722.375000 
	C841.177246,723.915710 841.240784,725.093628 841.592957,726.177917 
	C849.281067,749.849060 860.371338,771.836853 874.824463,792.070374 
	C878.424683,797.110352 882.960999,801.481567 887.077393,806.302734 
	C887.087708,806.445312 887.010864,806.720642 887.083557,806.953674 
	C887.291809,807.498413 887.518799,807.713501 887.903320,808.128479 
	C888.273682,808.920776 888.577881,809.416443 888.882019,809.912170 
M586.540771,722.948120 
	C608.335144,745.176575 629.467285,768.106018 652.081177,789.466919 
	C684.860107,820.429626 718.160339,850.895813 752.299072,880.343994 
	C774.559692,899.546082 798.562561,916.752441 822.096191,934.438660 
	C828.283936,939.089050 835.500977,942.463379 842.517090,945.862915 
	C844.731934,946.936035 847.831299,946.183411 850.525879,946.266357 
	C850.122253,943.743469 850.288818,940.934204 849.195557,938.757751 
	C846.965942,934.318970 844.533447,929.819275 841.349121,926.050537 
	C825.247314,906.994080 809.611450,887.467163 792.453064,869.395752 
	C753.227173,828.082153 711.984375,788.811096 669.031494,751.350342 
	C639.293396,725.414551 609.269165,699.834106 576.714844,677.454529 
	C568.673157,671.926270 559.810181,667.555054 551.129456,663.026123 
	C549.419800,662.134155 546.812561,662.962463 544.619263,662.997437 
	C544.831238,665.210449 544.606934,667.587097 545.360962,669.596741 
	C546.400696,672.367676 547.851074,675.123291 549.694092,677.431519 
	C561.726868,692.501892 573.913330,707.449646 586.540771,722.948120 
z"/>
<path fill="#AB6385" opacity="1.000000" stroke="none" 
	d="
M1307.006470,550.790039 
	C1336.985107,552.419006 1363.491699,562.496216 1385.418701,583.391174 
	C1405.524292,602.550476 1418.274170,626.143311 1424.771240,652.862061 
	C1428.009644,666.180359 1429.737427,679.987793 1430.797363,693.678528 
	C1431.790527,706.509216 1431.870361,719.548889 1430.824097,732.371887 
	C1428.264160,763.741943 1420.024048,793.804688 1407.473267,822.650696 
	C1388.788452,865.594849 1362.566162,903.152527 1326.864380,933.711731 
	C1299.761841,956.910400 1269.411987,973.932190 1234.063232,981.192322 
	C1169.594238,994.433228 1114.396851,961.407532 1090.910278,903.597351 
	C1084.315063,887.363831 1079.724365,870.603577 1078.058350,853.142456 
	C1077.101074,843.108032 1076.656372,833.024658 1076.186279,822.317993 
	C1076.582275,821.116760 1076.772949,820.560852 1077.265869,819.858398 
	C1083.836426,812.859985 1090.510010,806.332703 1096.301636,799.099182 
	C1119.250244,770.436584 1133.638184,737.612976 1141.934204,702.066711 
	C1144.862549,689.519043 1146.665649,676.708740 1149.251709,663.747681 
	C1151.128174,663.109436 1152.741699,662.766724 1154.342041,662.370483 
	C1197.602173,651.659546 1233.765869,628.441040 1265.878662,598.407654 
	C1275.075073,589.806580 1283.403198,580.222351 1291.632324,570.660950 
	C1296.889282,564.552734 1301.233643,557.659119 1306.242676,551.037720 
	C1306.667603,550.901855 1306.837036,550.845947 1307.006470,550.790039 
M1173.510742,895.050293 
	C1173.041260,896.294312 1172.503662,897.517334 1172.112671,898.785583 
	C1167.468140,913.846497 1162.638306,928.856384 1158.407715,944.033142 
	C1157.643799,946.773621 1159.366333,950.207214 1159.941040,953.320801 
	C1162.640259,952.035706 1165.349121,950.770081 1168.028809,949.445557 
	C1168.453491,949.235596 1168.788696,948.793152 1169.094849,948.402832 
	C1175.750244,939.917419 1182.883911,931.758240 1188.959961,922.875732 
	C1218.314697,879.961304 1243.021729,834.309753 1266.733643,788.146484 
	C1281.252075,759.881653 1294.765259,731.089661 1308.277710,702.322083 
	C1322.420288,672.213257 1335.492432,641.622131 1345.421509,609.824707 
	C1347.770630,602.301636 1348.678833,594.310059 1349.953979,586.485840 
	C1350.207520,584.929932 1349.109741,583.153809 1348.635254,581.479248 
	C1346.836548,582.041687 1344.571167,582.101135 1343.323975,583.258057 
	C1339.087402,587.188293 1334.517090,591.036438 1331.317505,595.758484 
	C1318.272949,615.010559 1305.127319,634.233093 1293.048828,654.093079 
	C1264.061401,701.756470 1238.239868,751.164490 1214.737671,801.736328 
	C1200.517944,832.334167 1187.434326,863.460022 1173.510742,895.050293 
z"/>
<path fill="#E5978C" opacity="1.000000" stroke="none" 
	d="
M760.962524,649.926880 
	C760.505127,649.677124 760.047668,649.427368 759.129211,648.803223 
	C737.471130,634.976074 714.803955,624.722534 690.682739,617.835938 
	C657.767944,608.438904 624.529724,605.336487 590.900085,614.001526 
	C569.585022,619.493530 550.509033,629.108765 534.885803,644.940002 
	C534.885803,644.940002 534.435120,644.970398 534.209534,644.983093 
	C516.486389,632.863220 501.881226,618.033691 492.088806,598.956543 
	C475.684357,566.998169 475.170593,533.822510 485.501678,500.099243 
	C494.846436,469.595673 511.655731,443.331421 533.387878,420.337128 
	C580.715454,370.261108 639.110046,340.410095 706.584839,328.362762 
	C722.847656,325.459106 739.622803,325.377411 756.176086,324.188538 
	C759.453247,323.953217 762.793152,324.591095 766.852783,324.887939 
	C768.047913,324.990692 768.494385,325.031769 768.998901,325.423340 
	C770.139221,328.017059 771.042664,330.369141 772.331116,332.486908 
	C786.011597,354.973694 801.942932,375.736328 820.768982,394.149719 
	C829.521179,402.710052 838.887634,410.642426 847.619995,418.990601 
	C842.663879,420.566345 838.038208,421.936066 833.466492,423.466705 
	C759.641968,448.183624 688.545532,479.414429 618.729858,513.663147 
	C587.189148,529.135681 555.945312,545.213196 526.705444,564.808105 
	C520.131409,569.213684 514.127319,574.599365 508.414307,580.107910 
	C505.381042,583.032654 506.795410,586.005737 510.995850,586.852234 
	C512.593628,587.174194 514.398132,587.249695 515.959473,586.852478 
	C531.881958,582.801270 548.078552,579.540405 563.622803,574.338318 
	C643.467590,547.617004 720.284607,513.643188 795.150269,475.300903 
	C819.995178,462.576660 843.797913,447.817627 868.321289,433.991882 
	C868.565369,433.994843 869.052307,433.942352 869.357605,434.099060 
	C876.503113,438.181763 883.343262,442.107758 890.099609,446.371765 
	C883.613098,454.945984 876.787537,462.891479 870.888672,471.473969 
	C854.348328,495.539154 843.319763,522.151367 836.015259,550.324280 
	C831.017944,569.598633 827.676270,589.162781 826.901733,609.364136 
	C826.475586,610.080933 826.186035,610.554565 825.585510,611.143433 
	C805.868774,625.565125 785.310486,637.898804 763.222168,647.637024 
	C762.309814,648.039307 761.708679,649.147583 760.962524,649.926880 
z"/>
<path fill="#C2C2C2" opacity="1.000000" stroke="none" 
	d="
M768.940796,325.072876 
	C768.494385,325.031769 768.047913,324.990692 767.273987,324.873291 
	C766.174561,322.638977 765.651367,320.349792 764.592651,318.343109 
	C753.343506,297.022186 744.979492,274.656616 740.532715,250.941284 
	C734.018066,216.197556 734.843933,181.992661 750.836548,149.655014 
	C768.922180,113.085121 799.159851,91.972488 838.675171,84.090813 
	C877.449890,76.356888 914.662598,83.518311 950.772400,97.950462 
	C983.241211,110.927414 1011.922302,129.885590 1037.938354,153.226440 
	C1068.176270,180.354950 1092.393188,211.951736 1109.995117,248.476913 
	C1115.531128,259.964722 1119.401489,272.255280 1124.043335,284.809814 
	C1124.030640,285.607483 1124.008911,285.773743 1123.639404,285.995850 
	C1109.225952,296.855408 1094.126465,306.575928 1081.370605,318.751740 
	C1067.140991,332.334351 1055.040649,348.147736 1041.711914,362.844299 
	C1014.629883,333.806549 988.587585,304.182922 960.867493,276.222717 
	C931.480286,246.580978 901.051086,217.905838 870.015015,189.989166 
	C850.128845,172.101761 828.456116,156.176163 807.266602,139.781662 
	C802.672302,136.227036 796.786926,134.271057 791.344299,131.932205 
	C789.981873,131.346710 788.030579,132.131470 786.349915,132.286469 
	C786.557007,133.836151 786.290222,135.682053 787.044922,136.889435 
	C794.163330,148.277405 800.654297,160.176743 808.840637,170.756851 
	C839.971741,210.991013 875.079041,247.710510 910.834473,283.802185 
	C926.281494,299.394470 941.701416,315.047028 957.802490,329.949402 
	C979.650940,350.171204 1002.141479,369.699219 1024.230957,389.894623 
	C1021.730652,394.829132 1019.355957,399.393799 1016.764404,403.981140 
	C1016.547485,404.003815 1016.112427,404.035614 1015.746765,403.876404 
	C1004.250122,401.016815 993.009644,400.250977 981.546814,400.853912 
	C969.511414,401.487030 957.695068,403.332397 946.801147,408.266388 
	C935.230896,413.506653 924.252380,420.053314 912.866821,425.682465 
	C910.264221,418.461700 908.346069,411.337219 905.265869,404.756622 
	C889.811707,371.740753 863.282593,350.901154 830.029358,337.949280 
	C810.430298,330.315552 790.010010,326.014069 768.940796,325.072876 
z"/>
<path fill="#FAEC70" opacity="1.000000" stroke="none" 
	d="
M1123.987183,285.939972 
	C1124.008911,285.773743 1124.030640,285.607483 1124.098267,285.193359 
	C1141.363159,274.751831 1159.116577,265.770264 1178.286255,259.687378 
	C1198.787354,253.181992 1219.722534,249.699081 1241.165649,251.177338 
	C1291.305664,254.633881 1330.015625,282.792664 1348.655151,329.430878 
	C1359.503906,356.575470 1361.772705,384.837738 1359.175293,413.718872 
	C1354.757568,462.836975 1336.303223,506.660889 1309.166260,547.251770 
	C1308.519287,548.219543 1307.906616,549.210144 1307.142212,550.490051 
	C1306.837036,550.845947 1306.667603,550.901855 1305.780518,550.971680 
	C1294.977905,551.827209 1284.715454,551.756165 1274.839111,553.673706 
	C1238.424683,560.743652 1207.307495,578.579163 1179.783569,602.873291 
	C1169.701782,611.771973 1160.582031,621.760620 1151.012695,630.768311 
	C1150.240845,599.676025 1146.772949,569.458008 1138.117432,539.696167 
	C1138.766479,538.527954 1139.206299,537.620667 1139.795166,536.823486 
	C1163.331055,504.955475 1187.342407,473.425476 1210.270264,441.126282 
	C1226.399292,418.404877 1241.608032,394.977753 1256.200439,371.234314 
	C1268.277344,351.583862 1279.009521,331.095032 1289.973633,310.781281 
	C1292.537720,306.030975 1293.840942,300.546204 1295.332153,295.288147 
	C1296.499878,291.170166 1294.403809,289.129456 1290.320679,290.165314 
	C1288.782227,290.555603 1287.193115,291.451172 1286.041016,292.550232 
	C1275.479736,302.625244 1264.347534,312.205444 1254.660400,323.069916 
	C1238.112549,341.628876 1221.949219,360.588715 1206.612305,380.154510 
	C1187.785278,404.172760 1169.843140,428.890961 1151.771240,453.492249 
	C1141.261353,467.799286 1131.246948,482.470245 1120.860474,496.665497 
	C1114.750610,486.467102 1109.151001,476.337036 1102.702026,466.780090 
	C1098.412109,460.422699 1092.909302,454.883759 1087.964355,448.735779 
	C1087.979370,448.493042 1088.020142,448.008331 1088.321899,447.863525 
	C1093.795654,442.596954 1099.403076,437.840759 1104.063110,432.289246 
	C1122.676392,410.115601 1131.678101,384.033630 1132.795288,355.441376 
	C1133.336548,341.587433 1132.339355,327.567291 1130.741943,313.772583 
	C1129.651978,304.360535 1126.317871,295.208344 1123.987183,285.939972 
z"/>
<path fill="#90AEAC" opacity="1.000000" stroke="none" 
	d="
M825.896484,611.028137 
	C826.186035,610.554565 826.475586,610.080933 827.242554,609.289795 
	C835.466187,602.476562 843.620483,596.403809 850.877014,589.400818 
	C868.052490,572.825439 882.908813,554.383057 894.481812,533.352966 
	C907.081116,510.458038 915.401733,486.395081 916.481079,460.025330 
	C925.169434,462.701294 933.362915,465.797119 941.794373,467.969604 
	C952.456299,470.716797 963.311890,472.712189 974.065002,475.485260 
	C972.718445,491.792969 971.103455,507.629852 970.141235,523.506348 
	C969.107605,540.560974 968.128418,557.652344 968.111206,574.728638 
	C968.071228,614.332886 968.470398,653.939819 969.015747,693.541260 
	C969.230286,709.115356 969.827637,724.717285 971.108337,740.235779 
	C973.020203,763.402832 975.362854,786.547791 978.215881,809.616394 
	C979.223816,817.766052 982.135193,825.703308 984.502808,833.640442 
	C984.925598,835.057617 986.905762,836.851135 988.238159,836.912231 
	C989.493103,836.969666 991.389893,835.224487 992.041931,833.824158 
	C993.645752,830.379761 995.321167,826.769348 995.864746,823.063843 
	C998.772461,803.243042 1002.001831,783.433960 1003.852905,763.503113 
	C1005.922852,741.215271 1006.891113,718.812439 1007.859741,696.438965 
	C1008.608276,679.148865 1008.674744,661.827637 1008.934998,644.518616 
	C1009.092712,634.028076 1009.042236,623.534424 1009.342834,613.244751 
	C1016.883545,624.270691 1025.433838,633.899048 1035.784058,641.934448 
	C1054.413452,656.397461 1075.654175,664.307617 1098.904053,666.755127 
	C1107.207031,667.629272 1115.662598,667.052673 1124.006348,667.489746 
	C1123.236450,669.326111 1122.626709,670.883911 1121.763306,672.285278 
	C1106.956543,696.316040 1095.649780,721.891357 1087.865479,749.019348 
	C1081.209717,772.214355 1076.533325,795.718994 1076.963623,820.004944 
	C1076.772949,820.560852 1076.582275,821.116760 1076.154175,821.853760 
	C1072.751953,824.400879 1069.556763,826.727478 1066.427002,829.139038 
	C1040.661499,848.992310 1011.764832,859.267090 979.041504,856.875183 
	C954.109741,855.052856 931.913574,845.540100 912.211792,830.457642 
	C904.181885,824.310486 897.054749,816.984070 889.199463,810.053162 
	C888.577881,809.416443 888.273682,808.920776 887.823730,807.909546 
	C887.503967,807.121704 887.281616,806.897217 887.010864,806.720642 
	C887.010864,806.720642 887.087708,806.445312 887.056580,805.898132 
	C881.755676,788.338684 874.556885,772.128357 865.159851,757.057861 
	C857.652832,745.018372 849.085083,733.640259 840.988159,721.968628 
	C840.988159,721.968628 840.982910,722.014221 840.897095,721.791504 
	C840.622192,721.275085 840.360474,721.078064 840.026001,720.977722 
	C839.465149,720.188354 838.904236,719.399048 838.397583,718.223022 
	C838.287903,717.551636 838.123962,717.266968 837.960083,716.982300 
	C837.960083,716.982300 838.014648,716.989197 838.054443,716.604248 
	C837.881287,715.083557 837.741333,713.928467 837.444702,712.815125 
	C829.905640,684.523010 825.709167,655.794189 826.041687,626.460205 
	C826.099976,621.317383 825.950256,616.172241 825.896484,611.028137 
z"/>
<path fill="#693F21" opacity="1.000000" stroke="none" 
	d="
M586.295166,722.692749 
	C573.913330,707.449646 561.726868,692.501892 549.694092,677.431519 
	C547.851074,675.123291 546.400696,672.367676 545.360962,669.596741 
	C544.606934,667.587097 544.831238,665.210449 544.619263,662.997437 
	C546.812561,662.962463 549.419800,662.134155 551.129456,663.026123 
	C559.810181,667.555054 568.673157,671.926270 576.714844,677.454529 
	C609.269165,699.834106 639.293396,725.414551 669.031494,751.350342 
	C711.984375,788.811096 753.227173,828.082153 792.453064,869.395752 
	C809.611450,887.467163 825.247314,906.994080 841.349121,926.050537 
	C844.533447,929.819275 846.965942,934.318970 849.195557,938.757751 
	C850.288818,940.934204 850.122253,943.743469 850.525879,946.266357 
	C847.831299,946.183411 844.731934,946.936035 842.517090,945.862915 
	C835.500977,942.463379 828.283936,939.089050 822.096191,934.438660 
	C798.562561,916.752441 774.559692,899.546082 752.299072,880.343994 
	C718.160339,850.895813 684.860107,820.429626 652.081177,789.466919 
	C629.467285,768.106018 608.335144,745.176575 586.295166,722.692749 
z"/>
<path fill="#AD5F48" opacity="1.000000" stroke="none" 
	d="
M535.100830,645.211792 
	C550.509033,629.108765 569.585022,619.493530 590.900085,614.001526 
	C624.529724,605.336487 657.767944,608.438904 690.682739,617.835938 
	C714.803955,624.722534 737.471130,634.976074 758.893921,648.686401 
	C749.894226,652.606323 740.900818,657.103516 731.391968,659.746094 
	C714.816284,664.352600 698.069092,668.684753 681.125122,671.534607 
	C660.966736,674.925049 640.519348,674.816223 620.069397,673.172119 
	C599.528076,671.520691 579.734375,666.951904 560.842163,658.944031 
	C552.017090,655.203369 543.805420,650.015564 535.100830,645.211792 
z"/>
<path fill="#EFEFEF" opacity="1.000000" stroke="none" 
	d="
M825.585571,611.143433 
	C825.950256,616.172241 826.099976,621.317383 826.041687,626.460205 
	C825.709167,655.794189 829.905640,684.523010 837.444702,712.815125 
	C837.741333,713.928467 837.881287,715.083557 838.048950,716.631165 
	C833.958679,712.693848 829.866150,708.387512 825.876526,703.988037 
	C806.930603,683.095398 785.427063,665.265137 761.288330,650.058350 
	C761.708679,649.147583 762.309814,648.039307 763.222168,647.637024 
	C785.310486,637.898804 805.868774,625.565125 825.585571,611.143433 
z"/>
<path fill="#886B58" opacity="1.000000" stroke="none" 
	d="
M840.983704,722.375000 
	C849.085083,733.640259 857.652832,745.018372 865.159851,757.057861 
	C874.556885,772.128357 881.755676,788.338684 887.046265,805.755554 
	C882.960999,801.481567 878.424683,797.110352 874.824463,792.070374 
	C860.371338,771.836853 849.281067,749.849060 841.592957,726.177917 
	C841.240784,725.093628 841.177246,723.915710 840.983704,722.375000 
z"/>
<path fill="#886B58" opacity="1.000000" stroke="none" 
	d="
M840.133789,721.203186 
	C840.360474,721.078064 840.622192,721.275085 840.919800,721.794556 
	C840.696350,721.915894 840.434082,721.718628 840.133789,721.203186 
z"/>
<path fill="#EFEFEF" opacity="1.000000" stroke="none" 
	d="
M837.967407,717.260071 
	C838.123962,717.266968 838.287903,717.551636 838.276978,717.957520 
	C838.059753,717.898438 838.017273,717.718140 837.967407,717.260071 
z"/>
<path fill="#886B58" opacity="1.000000" stroke="none" 
	d="
M887.083557,806.953674 
	C887.281616,806.897217 887.503967,807.121704 887.757507,807.612976 
	C887.518799,807.713501 887.291809,807.498413 887.083557,806.953674 
z"/>
<path fill="#902D5B" opacity="1.000000" stroke="none" 
	d="
M1173.675537,894.699463 
	C1187.434326,863.460022 1200.517944,832.334167 1214.737671,801.736328 
	C1238.239868,751.164490 1264.061401,701.756470 1293.048828,654.093079 
	C1305.127319,634.233093 1318.272949,615.010559 1331.317505,595.758484 
	C1334.517090,591.036438 1339.087402,587.188293 1343.323975,583.258057 
	C1344.571167,582.101135 1346.836548,582.041687 1348.635254,581.479248 
	C1349.109741,583.153809 1350.207520,584.929932 1349.953979,586.485840 
	C1348.678833,594.310059 1347.770630,602.301636 1345.421509,609.824707 
	C1335.492432,641.622131 1322.420288,672.213257 1308.277710,702.322083 
	C1294.765259,731.089661 1281.252075,759.881653 1266.733643,788.146484 
	C1243.021729,834.309753 1218.314697,879.961304 1188.959961,922.875732 
	C1182.883911,931.758240 1175.750244,939.917419 1169.094849,948.402832 
	C1168.788696,948.793152 1168.453491,949.235596 1168.028809,949.445557 
	C1165.349121,950.770081 1162.640259,952.035706 1159.941040,953.320801 
	C1159.366333,950.207214 1157.643799,946.773621 1158.407715,944.033142 
	C1162.638306,928.856384 1167.468140,913.846497 1172.112671,898.785583 
	C1172.503662,897.517334 1173.041260,896.294312 1173.675537,894.699463 
z"/>
<path fill="#AE615C" opacity="1.000000" stroke="none" 
	d="
M1151.023315,631.252075 
	C1160.582031,621.760620 1169.701782,611.771973 1179.783569,602.873291 
	C1207.307495,578.579163 1238.424683,560.743652 1274.839111,553.673706 
	C1284.715454,551.756165 1294.977905,551.827209 1305.525146,551.051514 
	C1301.233643,557.659119 1296.889282,564.552734 1291.632324,570.660950 
	C1283.403198,580.222351 1275.075073,589.806580 1265.878662,598.407654 
	C1233.765869,628.441040 1197.602173,651.659546 1154.342041,662.370483 
	C1152.741699,662.766724 1151.128174,663.109436 1148.827881,663.739746 
	C1140.410889,664.985596 1132.686646,665.968872 1125.119873,666.653381 
	C1133.859253,654.653748 1142.441284,642.952881 1151.023315,631.252075 
z"/>
<path fill="#8C4E6F" opacity="1.000000" stroke="none" 
	d="
M1124.962402,666.952087 
	C1132.686646,665.968872 1140.410889,664.985596 1148.558838,664.010376 
	C1146.665649,676.708740 1144.862549,689.519043 1141.934204,702.066711 
	C1133.638184,737.612976 1119.250244,770.436584 1096.301636,799.099182 
	C1090.510010,806.332703 1083.836426,812.859985 1077.265869,819.858398 
	C1076.533325,795.718994 1081.209717,772.214355 1087.865479,749.019348 
	C1095.649780,721.891357 1106.956543,696.316040 1121.763306,672.285278 
	C1122.626709,670.883911 1123.236450,669.326111 1124.233154,667.434265 
	C1124.502197,667.027405 1124.962402,666.952087 1124.962402,666.952087 
z"/>
<path fill="#A62C18" opacity="1.000000" stroke="none" 
	d="
M868.077148,433.988892 
	C843.797913,447.817627 819.995178,462.576660 795.150269,475.300903 
	C720.284607,513.643188 643.467590,547.617004 563.622803,574.338318 
	C548.078552,579.540405 531.881958,582.801270 515.959473,586.852478 
	C514.398132,587.249695 512.593628,587.174194 510.995850,586.852234 
	C506.795410,586.005737 505.381042,583.032654 508.414307,580.107910 
	C514.127319,574.599365 520.131409,569.213684 526.705444,564.808105 
	C555.945312,545.213196 587.189148,529.135681 618.729858,513.663147 
	C688.545532,479.414429 759.641968,448.183624 833.466492,423.466705 
	C838.038208,421.936066 842.663879,420.566345 847.951782,419.041473 
	C849.084290,419.008240 849.529480,419.055267 850.124573,419.397888 
	C851.625427,420.858459 852.938354,422.071381 854.334412,423.179657 
	C858.898987,426.803253 863.493896,430.388763 868.077148,433.988892 
z"/>
<path fill="#BC948F" opacity="1.000000" stroke="none" 
	d="
M849.974670,419.102295 
	C849.529480,419.055267 849.084290,419.008240 848.307373,418.910339 
	C838.887634,410.642426 829.521179,402.710052 820.768982,394.149719 
	C801.942932,375.736328 786.011597,354.973694 772.331116,332.486908 
	C771.042664,330.369141 770.139221,328.017059 768.998901,325.423340 
	C790.010010,326.014069 810.430298,330.315552 830.029358,337.949280 
	C863.282593,350.901154 889.811707,371.740753 905.265869,404.756622 
	C908.346069,411.337219 910.264221,418.461700 912.856812,425.927368 
	C912.995361,426.519348 912.975525,427.009827 912.665100,427.141754 
	C905.563721,433.497864 898.772705,439.722046 891.681152,445.965088 
	C890.981506,446.000549 890.582458,446.017151 890.183472,446.033752 
	C883.343262,442.107758 876.503113,438.181763 869.543335,433.833771 
	C875.015198,428.714600 880.707703,424.128906 886.115601,419.229126 
	C887.239380,418.210907 888.112122,415.719238 887.632141,414.471344 
	C887.173279,413.278076 884.633118,411.927399 883.297729,412.179779 
	C872.152161,414.286560 861.073486,416.747925 849.974670,419.102295 
z"/>
<path fill="#8A8079" opacity="1.000000" stroke="none" 
	d="
M890.099609,446.371765 
	C890.582458,446.017151 890.981506,446.000549 891.741943,446.314056 
	C900.060242,450.433655 908.017090,454.223145 915.983398,458.350098 
	C916.025879,459.136780 916.058899,459.585968 916.091919,460.035187 
	C915.401733,486.395081 907.081116,510.458038 894.481812,533.352966 
	C882.908813,554.383057 868.052490,572.825439 850.877014,589.400818 
	C843.620483,596.403809 835.466187,602.476562 827.379150,609.046509 
	C827.676270,589.162781 831.017944,569.598633 836.015259,550.324280 
	C843.319763,522.151367 854.348328,495.539154 870.888672,471.473969 
	C876.787537,462.891479 883.613098,454.945984 890.099609,446.371765 
z"/>
<path fill="#9D5E54" opacity="1.000000" stroke="none" 
	d="
M850.124573,419.397888 
	C861.073486,416.747925 872.152161,414.286560 883.297729,412.179779 
	C884.633118,411.927399 887.173279,413.278076 887.632141,414.471344 
	C888.112122,415.719238 887.239380,418.210907 886.115601,419.229126 
	C880.707703,424.128906 875.015198,428.714600 869.238037,433.677063 
	C869.052307,433.942352 868.565369,433.994843 868.321289,433.991882 
	C863.493896,430.388763 858.898987,426.803253 854.334412,423.179657 
	C852.938354,422.071381 851.625427,420.858459 850.124573,419.397888 
z"/>
<path fill="#010101" opacity="1.000000" stroke="none" 
	d="
M1024.356567,389.524780 
	C1002.141479,369.699219 979.650940,350.171204 957.802490,329.949402 
	C941.701416,315.047028 926.281494,299.394470 910.834473,283.802185 
	C875.079041,247.710510 839.971741,210.991013 808.840637,170.756851 
	C800.654297,160.176743 794.163330,148.277405 787.044922,136.889435 
	C786.290222,135.682053 786.557007,133.836151 786.349915,132.286469 
	C788.030579,132.131470 789.981873,131.346710 791.344299,131.932205 
	C796.786926,134.271057 802.672302,136.227036 807.266602,139.781662 
	C828.456116,156.176163 850.128845,172.101761 870.015015,189.989166 
	C901.051086,217.905838 931.480286,246.580978 960.867493,276.222717 
	C988.587585,304.182922 1014.629883,333.806549 1041.814453,363.164337 
	C1044.361328,366.175720 1046.652100,368.612122 1048.622192,371.284973 
	C1059.167725,385.592682 1069.821289,399.828247 1079.980591,414.407196 
	C1082.232666,417.638947 1082.641479,422.155029 1083.899170,426.079742 
	C1083.390991,426.496643 1082.882812,426.913544 1082.374512,427.330444 
	C1080.103394,426.798370 1077.604736,426.699890 1075.604614,425.650879 
	C1070.171021,422.801086 1064.639526,419.972229 1059.703735,416.371674 
	C1047.752808,407.653778 1036.118530,398.501831 1024.356567,389.524780 
z"/>
<path fill="#C7C081" opacity="1.000000" stroke="none" 
	d="
M1024.230957,389.894653 
	C1036.118530,398.501831 1047.752808,407.653778 1059.703735,416.371674 
	C1064.639526,419.972229 1070.171021,422.801086 1075.604614,425.650879 
	C1077.604736,426.699890 1080.103394,426.798370 1082.374512,427.330444 
	C1082.882812,426.913544 1083.390991,426.496643 1083.899170,426.079742 
	C1082.641479,422.155029 1082.232666,417.638947 1079.980591,414.407196 
	C1069.821289,399.828247 1059.167725,385.592682 1048.622192,371.284973 
	C1046.652100,368.612122 1044.361328,366.175720 1042.115967,363.310181 
	C1055.040649,348.147736 1067.140991,332.334351 1081.370605,318.751740 
	C1094.126465,306.575928 1109.225952,296.855408 1123.639404,285.995850 
	C1126.317871,295.208344 1129.651978,304.360535 1130.741943,313.772583 
	C1132.339355,327.567291 1133.336548,341.587433 1132.795288,355.441376 
	C1131.678101,384.033630 1122.676392,410.115601 1104.063110,432.289246 
	C1099.403076,437.840759 1093.795654,442.596954 1088.021729,447.715210 
	C1085.505493,445.866150 1083.540894,444.069580 1081.684326,442.167511 
	C1063.558960,423.596405 1042.134644,410.622803 1016.981262,403.958466 
	C1019.355957,399.393799 1021.730652,394.829132 1024.230957,389.894653 
z"/>
<path fill="#91A09F" opacity="1.000000" stroke="none" 
	d="
M916.481079,460.025330 
	C916.058899,459.585968 916.025879,459.136780 915.996704,457.880676 
	C914.992249,447.052460 913.983887,437.031128 912.975525,427.009827 
	C912.975525,427.009827 912.995361,426.519348 913.005371,426.274414 
	C924.252380,420.053314 935.230896,413.506653 946.801147,408.266388 
	C957.695068,403.332397 969.511414,401.487030 981.546814,400.853912 
	C993.009644,400.250977 1004.250122,401.016815 1015.708374,404.245422 
	C1015.024719,407.012573 1013.974731,409.234772 1013.009399,411.493195 
	C1008.077881,423.030457 1003.168274,434.577057 998.170166,445.693512 
	C996.755249,439.478882 995.792725,433.568085 993.933167,427.954376 
	C992.979736,425.076050 990.423157,422.728790 988.591064,420.141541 
	C986.708252,422.656097 984.032654,424.902069 983.074890,427.729828 
	C977.901978,443.002319 975.919373,458.888702 974.708618,474.945129 
	C974.500305,474.973328 974.083984,475.031891 974.083984,475.031860 
	C963.311890,472.712189 952.456299,470.716797 941.794373,467.969604 
	C933.362915,465.797119 925.169434,462.701294 916.481079,460.025330 
z"/>
<path fill="#B7B575" opacity="1.000000" stroke="none" 
	d="
M998.250977,446.120392 
	C1003.168274,434.577057 1008.077881,423.030457 1013.009399,411.493195 
	C1013.974731,409.234772 1015.024719,407.012573 1016.074036,404.404663 
	C1016.112427,404.035614 1016.547485,404.003815 1016.764404,403.981140 
	C1042.134644,410.622803 1063.558960,423.596405 1081.684326,442.167511 
	C1083.540894,444.069580 1085.505493,445.866150 1087.719971,447.860016 
	C1088.020142,448.008331 1087.979370,448.493042 1087.657471,448.876709 
	C1086.755127,449.583527 1086.124023,449.840240 1085.601685,450.239288 
	C1061.209106,468.872498 1033.268677,476.561066 1002.530090,477.029907 
	C998.364624,476.974701 994.658752,476.937531 990.957581,476.486481 
	C991.194641,474.601593 991.313599,473.101929 991.677795,471.664398 
	C993.837341,463.141754 996.053772,454.633484 998.250977,446.120392 
z"/>
<path fill="#DBD65A" opacity="1.000000" stroke="none" 
	d="
M1002.989624,477.047943 
	C1033.268677,476.561066 1061.209106,468.872498 1085.601685,450.239288 
	C1086.124023,449.840240 1086.755127,449.583527 1087.642334,449.119446 
	C1092.909302,454.883759 1098.412109,460.422699 1102.702026,466.780090 
	C1109.151001,476.337036 1114.750610,486.467102 1120.723389,496.982880 
	C1104.431641,523.650940 1087.633301,549.397949 1072.026123,575.847839 
	C1063.870239,589.669739 1057.633423,604.647827 1050.972534,619.304932 
	C1049.846924,621.781921 1050.969482,625.280762 1051.053345,628.307434 
	C1054.032349,627.376160 1057.769653,627.277954 1059.862305,625.372986 
	C1070.276367,615.892151 1080.880249,606.493286 1090.253540,596.023682 
	C1106.610229,577.753601 1122.115601,558.721313 1137.977783,540.008484 
	C1146.772949,569.458008 1150.240845,599.676025 1151.012695,630.768311 
	C1142.441284,642.952881 1133.859253,654.653748 1125.119873,666.653381 
	C1124.962402,666.952087 1124.502197,667.027405 1124.275391,667.082886 
	C1115.662598,667.052673 1107.207031,667.629272 1098.904053,666.755127 
	C1075.654175,664.307617 1054.413452,656.397461 1035.784058,641.934448 
	C1025.433838,633.899048 1016.883545,624.270691 1009.287476,612.998779 
	C1008.958862,612.383545 1008.943298,612.216797 1008.957275,611.579834 
	C1008.657227,595.344421 1008.381226,579.577881 1007.980164,563.814575 
	C1007.697632,552.706238 1007.489014,541.587463 1006.813538,530.499756 
	C1005.727356,512.671021 1004.282776,494.864105 1002.989624,477.047943 
z"/>
<path fill="#F1BB46" opacity="1.000000" stroke="none" 
	d="
M1138.117432,539.696167 
	C1122.115601,558.721313 1106.610229,577.753601 1090.253540,596.023682 
	C1080.880249,606.493286 1070.276367,615.892151 1059.862305,625.372986 
	C1057.769653,627.277954 1054.032349,627.376160 1051.053345,628.307434 
	C1050.969482,625.280762 1049.846924,621.781921 1050.972534,619.304932 
	C1057.633423,604.647827 1063.870239,589.669739 1072.026123,575.847839 
	C1087.633301,549.397949 1104.431641,523.650940 1120.872681,497.294861 
	C1131.246948,482.470245 1141.261353,467.799286 1151.771240,453.492249 
	C1169.843140,428.890961 1187.785278,404.172760 1206.612305,380.154510 
	C1221.949219,360.588715 1238.112549,341.628876 1254.660400,323.069916 
	C1264.347534,312.205444 1275.479736,302.625244 1286.041016,292.550232 
	C1287.193115,291.451172 1288.782227,290.555603 1290.320679,290.165314 
	C1294.403809,289.129456 1296.499878,291.170166 1295.332153,295.288147 
	C1293.840942,300.546204 1292.537720,306.030975 1289.973633,310.781281 
	C1279.009521,331.095032 1268.277344,351.583862 1256.200439,371.234314 
	C1241.608032,394.977753 1226.399292,418.404877 1210.270264,441.126282 
	C1187.342407,473.425476 1163.331055,504.955475 1139.795166,536.823486 
	C1139.206299,537.620667 1138.766479,538.527954 1138.117432,539.696167 
z"/>
<path fill="#2E6A65" opacity="1.000000" stroke="none" 
	d="
M1008.927795,612.050049 
	C1008.943298,612.216797 1008.958862,612.383545 1009.029907,612.796265 
	C1009.042236,623.534424 1009.092712,634.028076 1008.934998,644.518616 
	C1008.674744,661.827637 1008.608276,679.148865 1007.859741,696.438965 
	C1006.891113,718.812439 1005.922852,741.215271 1003.852905,763.503113 
	C1002.001831,783.433960 998.772461,803.243042 995.864746,823.063843 
	C995.321167,826.769348 993.645752,830.379761 992.041931,833.824158 
	C991.389893,835.224487 989.493103,836.969666 988.238159,836.912231 
	C986.905762,836.851135 984.925598,835.057617 984.502808,833.640442 
	C982.135193,825.703308 979.223816,817.766052 978.215881,809.616394 
	C975.362854,786.547791 973.020203,763.402832 971.108337,740.235779 
	C969.827637,724.717285 969.230286,709.115356 969.015747,693.541260 
	C968.470398,653.939819 968.071228,614.332886 968.111206,574.728638 
	C968.128418,557.652344 969.107605,540.560974 970.141235,523.506348 
	C971.103455,507.629852 972.718445,491.792969 974.065002,475.485291 
	C974.083984,475.031891 974.500305,474.973328 975.119995,475.036530 
	C980.526550,475.740356 985.313477,476.380951 990.088013,477.435730 
	C988.723877,485.625702 986.667786,493.355591 986.157227,501.186249 
	C984.819519,521.703247 984.501282,542.224304 988.965210,562.535156 
	C992.845276,580.189331 998.781494,596.952332 1008.927795,612.050049 
z"/>
<path fill="#8E8985" opacity="1.000000" stroke="none" 
	d="
M912.665100,427.141754 
	C913.983887,437.031128 914.992249,447.052460 915.987305,457.543213 
	C908.017090,454.223145 900.060242,450.433655 892.042542,446.295166 
	C898.772705,439.722046 905.563721,433.497864 912.665100,427.141754 
z"/>
<path fill="#5F7E7B" opacity="1.000000" stroke="none" 
	d="
M990.100342,477.021545 
	C985.313477,476.380951 980.526550,475.740356 975.328247,475.008301 
	C975.919373,458.888702 977.901978,443.002319 983.074890,427.729828 
	C984.032654,424.902069 986.708252,422.656097 988.591064,420.141541 
	C990.423157,422.728790 992.979736,425.076050 993.933167,427.954376 
	C995.792725,433.568085 996.755249,439.478882 998.170166,445.693512 
	C996.053772,454.633484 993.837341,463.141754 991.677795,471.664398 
	C991.313599,473.101929 991.194641,474.601593 990.745361,476.523438 
	C990.528442,476.974274 990.100342,477.021545 990.100342,477.021545 
z"/>
<path fill="#BBC143" opacity="1.000000" stroke="none" 
	d="
M990.088013,477.435730 
	C990.100342,477.021545 990.528442,476.974274 990.740601,476.937317 
	C994.658752,476.937531 998.364624,476.974701 1002.530090,477.029907 
	C1004.282776,494.864105 1005.727356,512.671021 1006.813538,530.499756 
	C1007.489014,541.587463 1007.697632,552.706238 1007.980164,563.814575 
	C1008.381226,579.577881 1008.657227,595.344421 1008.957275,611.579834 
	C998.781494,596.952332 992.845276,580.189331 988.965210,562.535156 
	C984.501282,542.224304 984.819519,521.703247 986.157227,501.186249 
	C986.667786,493.355591 988.723877,485.625702 990.088013,477.435730 
z"/>
</svg>