<svg version="1.1" id="Layer_1" xmlns="http://www.w3.org/2000/svg" xmlns:xlink="http://www.w3.org/1999/xlink" x="0px" y="0px"
	 width="100%" viewBox="0 0 666 375" enable-background="new 0 0 666 375" xml:space="preserve">
<path fill="#000000" opacity="1.000000" stroke="none" 
	d="
M489.000000,376.000000 
	C326.039001,376.000000 163.577988,376.000000 1.058492,376.000000 
	C1.058492,251.069016 1.058492,126.137993 1.058492,1.103486 
	C222.877686,1.103486 444.755432,1.103486 666.816589,1.103486 
	C666.816589,125.999779 666.816589,250.999863 666.816589,376.000000 
	C607.804626,376.000000 548.652283,376.000000 489.000000,376.000000 
M281.184937,104.678162 
	C275.787781,87.112663 265.428314,72.858780 252.087723,60.480152 
	C238.619156,47.982780 223.127487,39.338600 204.936249,36.596325 
	C196.799240,35.369694 187.866882,34.322918 180.151443,36.389816 
	C160.221634,41.728851 149.225662,54.536266 147.047379,75.880096 
	C145.478760,91.250275 149.749512,105.462097 156.136551,119.333778 
	C147.319305,120.546677 138.413086,121.314461 129.701538,123.056076 
	C103.742134,128.245880 83.085625,141.897903 67.949066,163.573257 
	C58.745686,176.752365 55.158161,191.272400 58.954376,207.317963 
	C61.408344,217.690216 68.052521,224.794754 75.870209,231.599579 
	C72.976639,235.907654 69.175972,239.864731 67.349281,244.585632 
	C60.113796,263.285004 63.810356,281.554779 72.434982,298.588165 
	C81.692749,316.872009 95.775932,331.353455 113.426422,341.898254 
	C130.875885,352.322968 149.603683,357.394623 170.070221,352.999939 
	C189.730362,348.778412 203.018784,331.837097 202.906006,312.114838 
	C202.865967,305.109070 201.736984,298.109558 201.795486,291.057343 
	C202.805969,291.854004 203.846069,292.616089 204.822403,293.452606 
	C215.843872,302.895630 228.473053,307.694244 242.752792,303.781128 
	C250.184113,301.744720 256.936340,297.230072 264.710602,294.332336 
	C264.857147,303.894714 266.165527,313.249939 270.065887,322.069336 
	C273.876648,330.686096 279.446350,337.925415 287.600464,342.859436 
	C303.695129,352.598236 320.034302,350.420715 335.802094,342.541138 
	C349.563202,335.664398 360.614075,325.165863 369.128906,312.354553 
	C387.387848,284.882324 395.065979,255.625977 381.914520,223.685974 
	C378.017609,214.221710 371.294373,206.662155 361.400604,202.824188 
	C356.347717,200.864090 351.033752,199.577087 346.143188,197.331375 
	C357.807312,178.607437 365.841064,158.903198 363.032776,136.158936 
	C361.631683,124.811386 357.902466,114.379387 349.696381,106.314217 
	C337.058380,93.893196 320.989044,93.053001 304.942444,95.895241 
	C296.916809,97.316772 289.465027,101.978050 281.184937,104.678162 
z"/>
<path fill="#B98E7D" opacity="1.000000" stroke="none" 
	d="
M201.105118,291.107178 
	C201.736984,298.109558 202.865967,305.109070 202.906006,312.114838 
	C203.018784,331.837097 189.730362,348.778412 170.070221,352.999939 
	C149.603683,357.394623 130.875885,352.322968 113.426422,341.898254 
	C95.775932,331.353455 81.692749,316.872009 72.434982,298.588165 
	C63.810356,281.554779 60.113796,263.285004 67.349281,244.585632 
	C69.175972,239.864731 72.976639,235.907654 76.254120,231.310013 
	C76.804062,231.040115 76.970078,231.059769 77.350906,231.327148 
	C87.892769,237.741791 99.001640,240.651657 111.090530,241.200897 
	C126.411316,241.896973 140.662827,238.177536 155.023010,232.941132 
	C155.497910,232.942947 155.687851,232.939377 156.027588,233.267395 
	C157.586792,234.352997 159.193481,234.878815 160.373138,235.898605 
	C167.245972,241.839844 174.018570,247.897018 180.999878,254.098358 
	C181.799866,255.556992 182.425003,256.832336 183.183685,258.290771 
	C183.518539,258.706818 183.757202,258.891479 184.003616,259.026062 
	C183.973999,259.024261 183.981781,258.965454 183.989319,259.353760 
	C186.724976,265.913666 189.187378,272.223969 192.303482,278.193054 
	C193.674103,280.818604 196.375092,282.749603 198.649796,285.270630 
	C199.586746,287.399261 200.345932,289.253204 201.105118,291.107178 
M92.839478,255.667770 
	C118.490906,283.539001 145.931000,309.447327 176.666733,331.701965 
	C179.448822,333.716431 182.797379,334.948578 185.882874,336.544006 
	C186.248398,336.067291 186.613922,335.590607 186.979462,335.113922 
	C186.008682,333.280823 185.303619,331.231903 184.020660,329.652405 
	C178.777557,323.197388 173.817505,316.418640 167.914825,310.611298 
	C151.906601,294.861511 135.843048,279.127655 119.068115,264.212250 
	C108.666542,254.963715 96.960205,247.175507 85.748962,238.853836 
	C84.363762,237.825653 82.419586,237.550522 80.734436,236.926422 
	C80.242653,237.510071 79.750862,238.093704 79.259079,238.677353 
	C83.646034,244.150482 88.032990,249.623611 92.839478,255.667770 
z"/>
<path fill="#AF688A" opacity="1.000000" stroke="none" 
	d="
M345.837769,197.985870 
	C351.033752,199.577087 356.347717,200.864090 361.400604,202.824188 
	C371.294373,206.662155 378.017609,214.221710 381.914520,223.685974 
	C395.065979,255.625977 387.387848,284.882324 369.128906,312.354553 
	C360.614075,325.165863 349.563202,335.664398 335.802094,342.541138 
	C320.034302,350.420715 303.695129,352.598236 287.600464,342.859436 
	C279.446350,337.925415 273.876648,330.686096 270.065887,322.069336 
	C266.165527,313.249939 264.857147,303.894714 264.487457,293.832520 
	C264.562500,292.848663 264.860687,292.364594 265.434814,291.721985 
	C280.447510,276.716888 287.568787,258.420685 290.001465,237.763062 
	C290.024445,237.535919 290.062378,237.080887 290.464050,237.061554 
	C298.087799,234.265625 305.779053,232.314987 312.431641,228.535889 
	C325.224640,221.268707 336.145844,211.609039 344.250183,198.778229 
	C344.923676,198.423447 345.380707,198.204666 345.837769,197.985870 
M335.474091,271.989899 
	C342.445862,256.358795 349.593323,240.802322 356.283295,225.051529 
	C358.313049,220.272720 359.078644,214.956970 360.423248,209.887161 
	C359.774170,209.604416 359.125122,209.321655 358.476044,209.038910 
	C356.757782,210.698349 354.623260,212.096115 353.388855,214.059723 
	C345.438904,226.706131 337.253601,239.234268 329.960968,252.257828 
	C316.134888,276.949158 303.944855,302.450867 294.577240,329.211517 
	C293.664032,331.820282 293.537445,334.704407 293.045715,337.460693 
	C293.832214,337.773560 294.618683,338.086426 295.405151,338.399292 
	C312.402985,318.853088 323.023163,295.282379 335.474091,271.989899 
z"/>
<path fill="#ED9F93" opacity="1.000000" stroke="none" 
	d="
M155.877808,232.935791 
	C155.687851,232.939377 155.497910,232.942947 154.863327,232.667648 
	C143.948059,225.185043 132.210922,220.851807 119.788261,219.279755 
	C104.166992,217.302902 89.221123,219.460831 77.136093,231.079422 
	C76.970078,231.059769 76.804062,231.040115 76.389236,230.988708 
	C68.052521,224.794754 61.408344,217.690216 58.954376,207.317963 
	C55.158161,191.272400 58.745686,176.752365 67.949066,163.573257 
	C83.085625,141.897903 103.742134,128.245880 129.701538,123.056076 
	C138.413086,121.314461 147.319305,120.546677 156.665558,119.372658 
	C157.490570,119.647743 157.786606,119.883942 158.222229,120.416656 
	C161.709656,125.460060 164.738663,130.477524 168.482147,134.888657 
	C173.729996,141.072510 179.509521,146.805130 184.688690,152.849091 
	C166.851151,159.815811 149.026733,165.882935 132.016144,173.717163 
	C112.280540,182.806351 93.220772,193.373535 73.975319,203.503708 
	C71.469193,204.822830 69.603676,207.358994 67.441437,209.331436 
	C67.763321,209.890778 68.085197,210.450119 68.407082,211.009476 
	C71.723373,210.421173 75.121201,210.118637 78.343010,209.199265 
	C103.520325,202.014511 127.482330,191.671021 150.948761,180.252609 
	C164.963577,173.433182 178.428757,165.484161 192.443329,158.016159 
	C193.141159,157.898163 193.536667,157.806900 194.127411,157.996002 
	C196.232330,159.514755 198.142029,160.753159 200.030045,162.239746 
	C200.008362,162.487946 199.976135,162.984940 199.720215,163.195923 
	C186.269104,179.281662 179.266525,197.479446 178.765884,218.399567 
	C178.339249,219.096863 178.066315,219.568542 177.491501,220.184082 
	C170.085678,224.530548 162.981750,228.733170 155.877808,232.935791 
z"/>
<path fill="#CACAC9" opacity="1.000000" stroke="none" 
	d="
M158.082626,120.120148 
	C157.786606,119.883942 157.490570,119.647743 157.035950,119.173920 
	C149.749512,105.462097 145.478760,91.250275 147.047379,75.880096 
	C149.225662,54.536266 160.221634,41.728851 180.151443,36.389816 
	C187.866882,34.322918 196.799240,35.369694 204.936249,36.596325 
	C223.127487,39.338600 238.619156,47.982780 252.087723,60.480152 
	C265.428314,72.858780 275.787781,87.112663 281.481934,105.203484 
	C281.761475,106.098679 281.743958,106.468544 281.406525,106.934631 
	C278.724060,108.515617 276.005493,109.638504 274.062744,111.549919 
	C266.934387,118.563156 260.063812,125.838432 252.777618,132.888733 
	C249.142456,129.039368 245.890762,125.256081 242.498764,121.603081 
	C220.387268,97.790146 197.684921,74.603889 171.255386,55.448711 
	C169.410614,54.111691 167.100677,53.416492 165.007050,52.422832 
	C164.704361,52.810760 164.401672,53.198692 164.098984,53.586620 
	C164.984833,55.471672 165.495056,57.685837 166.814117,59.191319 
	C181.488251,75.939377 195.863327,92.980881 211.193436,109.112305 
	C222.500946,121.010880 235.098999,131.683014 246.875916,143.123978 
	C245.803726,144.665588 244.977676,145.984833 243.916733,147.298431 
	C243.681839,147.292770 243.223373,147.373474 242.793716,147.278931 
	C236.352234,147.365082 230.148804,146.685852 224.382919,147.970444 
	C218.714478,149.233353 213.490158,152.489639 207.993210,154.514160 
	C201.711533,131.838684 180.046295,121.314018 158.082626,120.120148 
z"/>
<path fill="#FFF176" opacity="1.000000" stroke="none" 
	d="
M281.726440,106.838417 
	C281.743958,106.468544 281.761475,106.098679 281.766327,105.451408 
	C289.465027,101.978050 296.916809,97.316772 304.942444,95.895241 
	C320.989044,93.053001 337.058380,93.893196 349.696381,106.314217 
	C357.902466,114.379387 361.631683,124.811386 363.032776,136.158936 
	C365.841064,158.903198 357.807312,178.607437 345.990479,197.658630 
	C345.380707,198.204666 344.923676,198.423447 343.792786,198.708572 
	C339.655518,199.079590 336.127838,199.063965 332.739471,199.743088 
	C316.027222,203.092728 303.335815,213.032883 291.715515,224.731964 
	C290.979431,220.502243 290.719452,216.535583 289.937775,212.674515 
	C288.802460,207.066345 287.290771,201.534348 285.965118,195.660995 
	C286.015564,194.939789 286.040466,194.527451 286.346985,193.928894 
	C288.780762,191.003967 290.953003,188.280731 293.082031,185.524124 
	C310.086823,163.507111 325.925140,140.715195 338.831573,116.009109 
	C339.996185,113.779732 340.294373,111.097748 340.994934,108.625954 
	C340.324615,108.220360 339.654327,107.814758 338.984009,107.409164 
	C334.714325,111.423721 329.838379,114.966095 326.280029,119.534698 
	C310.961304,139.202545 296.029236,159.171600 280.673004,178.849457 
	C276.605591,173.446243 272.821594,168.224548 269.246460,162.747864 
	C271.496826,160.352142 273.793182,158.399918 275.538422,156.040100 
	C286.788666,140.827881 286.401093,124.088615 281.726440,106.838417 
z"/>
<path fill="#98B6B4" opacity="1.000000" stroke="none" 
	d="
M177.793396,220.040222 
	C178.066315,219.568542 178.339249,219.096863 179.068787,218.219818 
	C195.904816,204.697830 207.876068,189.007523 209.521454,167.072357 
	C216.272186,169.059311 222.652435,171.046143 229.018478,173.494904 
	C228.934875,177.282700 229.044907,180.623581 228.768372,183.932144 
	C225.988708,217.187729 226.795502,250.396011 230.177826,283.553802 
	C230.673355,288.411530 232.156235,293.168549 233.182266,297.972198 
	C233.903336,297.948944 234.624390,297.925690 235.345459,297.902435 
	C236.151428,295.460388 237.332535,293.071991 237.690979,290.565948 
	C238.654877,283.827026 239.611526,277.055023 239.950974,270.265167 
	C240.772827,253.825577 241.241974,237.368332 242.114532,221.136505 
	C252.094559,234.405716 265.570129,239.254929 281.188538,239.519531 
	C280.243103,241.282211 279.361053,242.683777 278.581482,244.140198 
	C270.593201,259.063843 265.124725,274.699707 265.158844,291.880524 
	C264.860687,292.364594 264.562500,292.848663 264.129822,293.583801 
	C256.936340,297.230072 250.184113,301.744720 242.752792,303.781128 
	C228.473053,307.694244 215.843872,302.895630 204.822403,293.452606 
	C203.846069,292.616089 202.805969,291.854004 201.450302,291.082275 
	C200.345932,289.253204 199.586746,287.399261 198.523193,284.896515 
	C193.473160,275.820312 188.727478,267.392883 183.981781,258.965454 
	C183.981781,258.965454 183.973999,259.024261 183.880096,258.830933 
	C183.595917,258.384491 183.350555,258.207825 183.050140,258.107666 
	C182.425003,256.832336 181.799866,255.556992 181.065369,253.682404 
	C179.901825,242.068848 178.847610,231.054535 177.793396,220.040222 
z"/>
<path fill="#6C4122" opacity="1.000000" stroke="none" 
	d="
M92.629715,255.382263 
	C88.032990,249.623611 83.646034,244.150482 79.259079,238.677353 
	C79.750862,238.093704 80.242653,237.510071 80.734436,236.926422 
	C82.419586,237.550522 84.363762,237.825653 85.748962,238.853836 
	C96.960205,247.175507 108.666542,254.963715 119.068115,264.212250 
	C135.843048,279.127655 151.906601,294.861511 167.914825,310.611298 
	C173.817505,316.418640 178.777557,323.197388 184.020660,329.652405 
	C185.303619,331.231903 186.008682,333.280823 186.979462,335.113922 
	C186.613922,335.590607 186.248398,336.067291 185.882874,336.544006 
	C182.797379,334.948578 179.448822,333.716431 176.666733,331.701965 
	C145.931000,309.447327 118.490906,283.539001 92.629715,255.382263 
z"/>
<path fill="#AF644D" opacity="1.000000" stroke="none" 
	d="
M77.350906,231.327148 
	C89.221123,219.460831 104.166992,217.302902 119.788261,219.279755 
	C132.210922,220.851807 143.948059,225.185043 154.578400,232.662262 
	C140.662827,238.177536 126.411316,241.896973 111.090530,241.200897 
	C99.001640,240.651657 87.892769,237.741791 77.350906,231.327148 
z"/>
<path fill="#000000" opacity="1.000000" stroke="none" 
	d="
M177.491501,220.184082 
	C178.847610,231.054535 179.901825,242.068848 180.890533,253.499100 
	C174.018570,247.897018 167.245972,241.839844 160.373138,235.898605 
	C159.193481,234.878815 157.586792,234.352997 156.027588,233.267395 
	C162.981750,228.733170 170.085678,224.530548 177.491501,220.184082 
z"/>
<path fill="#8D7261" opacity="1.000000" stroke="none" 
	d="
M183.989319,259.353760 
	C188.727478,267.392883 193.473160,275.820312 198.345444,284.621857 
	C196.375092,282.749603 193.674103,280.818604 192.303482,278.193054 
	C189.187378,272.223969 186.724976,265.913666 183.989319,259.353760 
z"/>
<path fill="#8D7261" opacity="1.000000" stroke="none" 
	d="
M183.183685,258.290771 
	C183.350555,258.207825 183.595917,258.384491 183.909729,258.832764 
	C183.757202,258.891479 183.518539,258.706818 183.183685,258.290771 
z"/>
<path fill="#912E5D" opacity="1.000000" stroke="none" 
	d="
M335.311340,272.325684 
	C323.023163,295.282379 312.402985,318.853088 295.405151,338.399292 
	C294.618683,338.086426 293.832214,337.773560 293.045715,337.460693 
	C293.537445,334.704407 293.664032,331.820282 294.577240,329.211517 
	C303.944855,302.450867 316.134888,276.949158 329.960968,252.257828 
	C337.253601,239.234268 345.438904,226.706131 353.388855,214.059723 
	C354.623260,212.096115 356.757782,210.698349 358.476044,209.038910 
	C359.125122,209.321655 359.774170,209.604416 360.423248,209.887161 
	C359.078644,214.956970 358.313049,220.272720 356.283295,225.051529 
	C349.593323,240.802322 342.445862,256.358795 335.311340,272.325684 
z"/>
<path fill="#B1645E" opacity="1.000000" stroke="none" 
	d="
M291.958466,225.042206 
	C303.335815,213.032883 316.027222,203.092728 332.739471,199.743088 
	C336.127838,199.063965 339.655518,199.079590 343.576355,198.844574 
	C336.145844,211.609039 325.224640,221.268707 312.431641,228.535889 
	C305.779053,232.314987 298.087799,234.265625 290.464661,236.654037 
	C290.019592,233.501678 289.975616,230.737488 290.058838,227.700287 
	C290.776855,226.632233 291.367645,225.837219 291.958466,225.042206 
z"/>
<path fill="#8E5272" opacity="1.000000" stroke="none" 
	d="
M265.434814,291.721985 
	C265.124725,274.699707 270.593201,259.063843 278.581482,244.140198 
	C279.361053,242.683777 280.243103,241.282211 281.364868,239.452866 
	C281.652161,239.050537 282.006958,238.912704 282.406372,238.911026 
	C285.196686,238.602966 287.587585,238.296600 289.978455,237.990234 
	C287.568787,258.420685 280.447510,276.716888 265.434814,291.721985 
z"/>
<path fill="#A65E56" opacity="1.000000" stroke="none" 
	d="
M290.001465,237.763077 
	C287.587585,238.296600 285.196686,238.602966 282.477264,238.583099 
	C284.743011,234.829010 287.337341,231.401154 289.931641,227.973312 
	C289.975616,230.737488 290.019592,233.501678 290.062988,236.673370 
	C290.062378,237.080887 290.024445,237.535919 290.001465,237.763077 
z"/>
<path fill="#A82E1A" opacity="1.000000" stroke="none" 
	d="
M192.141006,158.042908 
	C178.428757,165.484161 164.963577,173.433182 150.948761,180.252609 
	C127.482330,191.671021 103.520325,202.014511 78.343010,209.199265 
	C75.121201,210.118637 71.723373,210.421173 68.407082,211.009476 
	C68.085197,210.450119 67.763321,209.890778 67.441437,209.331436 
	C69.603676,207.358994 71.469193,204.822830 73.975319,203.503708 
	C93.220772,193.373535 112.280540,182.806351 132.016144,173.717163 
	C149.026733,165.882935 166.851151,159.815811 185.008118,152.871368 
	C186.129745,152.755325 186.559006,152.735321 187.167053,153.005981 
	C188.944214,154.878738 190.542618,156.460815 192.141006,158.042908 
z"/>
<path fill="#C09992" opacity="1.000000" stroke="none" 
	d="
M186.988266,152.715302 
	C186.559006,152.735321 186.129745,152.755325 185.381058,152.753052 
	C179.509521,146.805130 173.729996,141.072510 168.482147,134.888657 
	C164.738663,130.477524 161.709656,125.460060 158.222229,120.416656 
	C180.046295,121.314018 201.711533,131.838684 207.964508,154.782394 
	C207.998856,155.586304 207.984177,155.764893 207.681396,156.111206 
	C204.946091,158.183151 202.498917,160.087357 200.051727,161.991562 
	C198.142029,160.753159 196.232330,159.514755 194.323975,157.741150 
	C196.000458,155.361588 197.675583,153.517212 199.350708,151.672821 
	C199.035965,151.063614 198.721207,150.454391 198.406448,149.845184 
	C194.600388,150.801895 190.794327,151.758591 186.988266,152.715302 
z"/>
<path fill="#8F867D" opacity="1.000000" stroke="none" 
	d="
M209.150986,167.072205 
	C207.876068,189.007523 195.904816,204.697830 179.222504,217.994202 
	C179.266525,197.479446 186.269104,179.281662 200.095261,163.215057 
	C203.478241,164.017700 206.230255,165.012238 209.017838,166.274170 
	C209.085922,166.718460 209.118454,166.895340 209.150986,167.072205 
z"/>
<path fill="#9E6156" opacity="1.000000" stroke="none" 
	d="
M187.167053,153.005981 
	C190.794327,151.758591 194.600388,150.801895 198.406448,149.845184 
	C198.721207,150.454391 199.035965,151.063614 199.350708,151.672821 
	C197.675583,153.517212 196.000458,155.361588 194.128754,157.460815 
	C193.536667,157.806900 193.141159,157.898163 192.443329,158.016159 
	C190.542618,156.460815 188.944214,154.878738 187.167053,153.005981 
z"/>
<path fill="#918B87" opacity="1.000000" stroke="none" 
	d="
M208.982285,166.006775 
	C206.230255,165.012238 203.478241,164.017700 200.351166,163.004059 
	C199.976135,162.984940 200.008362,162.487946 200.030045,162.239746 
	C202.498917,160.087357 204.946091,158.183151 207.850098,156.489014 
	C208.532059,159.801651 208.757172,162.904205 208.982285,166.006775 
z"/>
<path fill="#040404" opacity="1.000000" stroke="none" 
	d="
M247.122040,142.901611 
	C235.098999,131.683014 222.500946,121.010880 211.193436,109.112305 
	C195.863327,92.980881 181.488251,75.939377 166.814117,59.191319 
	C165.495056,57.685837 164.984833,55.471672 164.098984,53.586620 
	C164.401672,53.198692 164.704361,52.810760 165.007050,52.422832 
	C167.100677,53.416492 169.410614,54.111691 171.255386,55.448711 
	C197.684921,74.603889 220.387268,97.790146 242.498764,121.603081 
	C245.890762,125.256081 249.142456,129.039368 252.901855,133.192261 
	C258.233521,140.485458 265.076721,146.144836 267.313416,154.642059 
	C266.828888,155.138504 266.344391,155.634933 265.859894,156.131378 
	C259.613922,151.721451 253.367981,147.311539 247.122040,142.901611 
z"/>
<path fill="#C9C182" opacity="1.000000" stroke="none" 
	d="
M246.875916,143.123978 
	C253.367981,147.311539 259.613922,151.721451 265.859894,156.131378 
	C266.344391,155.634933 266.828888,155.138504 267.313416,154.642059 
	C265.076721,146.144836 258.233521,140.485458 253.220428,133.318588 
	C260.063812,125.838432 266.934387,118.563156 274.062744,111.549919 
	C276.005493,109.638504 278.724060,108.515617 281.406555,106.934631 
	C286.401093,124.088615 286.788666,140.827881 275.538422,156.040100 
	C273.793182,158.399918 271.496826,160.352142 269.000427,162.756897 
	C268.545563,163.020920 268.054901,163.050766 267.983826,162.711029 
	C261.728882,154.610428 253.379349,150.264816 244.151642,147.304077 
	C244.977676,145.984833 245.803726,144.665588 246.875916,143.123978 
z"/>
<path fill="#95A3A3" opacity="1.000000" stroke="none" 
	d="
M209.017838,166.274170 
	C208.757172,162.904205 208.532059,159.801651 208.138229,156.321289 
	C207.984177,155.764893 207.998856,155.586304 208.042236,155.139465 
	C213.490158,152.489639 218.714478,149.233353 224.382919,147.970444 
	C230.148804,146.685852 236.352234,147.365082 242.741302,147.630890 
	C241.438004,152.396988 239.757477,156.716568 237.977417,160.676361 
	C236.889297,157.919785 235.900681,155.522964 234.912064,153.126160 
	C234.100967,153.216064 233.289886,153.305954 232.478790,153.395859 
	C231.688919,159.624908 230.899048,165.853973 229.965225,172.278442 
	C229.590576,172.705566 229.327728,172.891937 229.032700,173.032974 
	C222.652435,171.046143 216.272186,169.059311 209.521454,167.072357 
	C209.118454,166.895340 209.085922,166.718460 209.017838,166.274170 
z"/>
<path fill="#B7B676" opacity="1.000000" stroke="none" 
	d="
M238.076935,161.036148 
	C239.757477,156.716568 241.438004,152.396988 243.170959,147.725433 
	C243.223373,147.373474 243.681839,147.292770 243.916748,147.298431 
	C253.379349,150.264816 261.728882,154.610428 267.801636,162.998108 
	C259.549194,170.044876 250.088135,172.576721 239.610504,172.983322 
	C238.489670,172.228638 237.686096,171.538986 236.915787,170.491257 
	C237.324997,167.100830 237.700958,164.068497 238.076935,161.036148 
z"/>
<path fill="#DDD95C" opacity="1.000000" stroke="none" 
	d="
M239.927780,173.048355 
	C250.088135,172.576721 259.549194,170.044876 267.872711,163.337860 
	C268.054901,163.050766 268.545563,163.020920 268.791565,163.011887 
	C272.821594,168.224548 276.605591,173.446243 280.563171,179.098816 
	C280.496857,180.021576 280.256989,180.513474 279.840332,181.291687 
	C276.056641,186.962433 272.243805,192.222382 268.896484,197.763580 
	C264.944214,204.306198 261.238586,211.012314 257.760376,217.818420 
	C256.644104,220.002747 256.589172,222.729462 256.048676,225.208038 
	C256.669464,225.493744 257.290283,225.779449 257.911072,226.065155 
	C262.238220,221.769958 266.716187,217.614365 270.854370,213.144211 
	C276.028809,207.554642 280.923920,201.706451 285.939575,195.969879 
	C287.290771,201.534348 288.802460,207.066345 289.937775,212.674515 
	C290.719452,216.535583 290.979431,220.502243 291.715515,224.731964 
	C291.367645,225.837219 290.776855,226.632233 290.058838,227.700287 
	C287.337341,231.401154 284.743011,234.829010 282.077820,238.584778 
	C282.006958,238.912704 281.652161,239.050537 281.475830,239.117203 
	C265.570129,239.254929 252.094559,234.405716 242.021820,220.866150 
	C241.418808,219.643799 241.169754,218.910080 240.958954,217.694611 
	C240.640747,202.491364 240.284271,187.769867 239.927780,173.048355 
z"/>
<path fill="#F4BE49" opacity="1.000000" stroke="none" 
	d="
M280.017120,181.005356 
	C280.256989,180.513474 280.496857,180.021576 280.846558,179.280319 
	C296.029236,159.171600 310.961304,139.202545 326.280029,119.534698 
	C329.838379,114.966095 334.714325,111.423721 338.984009,107.409164 
	C339.654327,107.814758 340.324615,108.220360 340.994934,108.625954 
	C340.294373,111.097748 339.996185,113.779732 338.831573,116.009109 
	C325.925140,140.715195 310.086823,163.507111 293.082031,185.524124 
	C290.953003,188.280731 288.780762,191.003967 286.270721,193.555481 
	C283.947632,189.247314 281.982361,185.126328 280.017120,181.005356 
z"/>
<path fill="#EDB945" opacity="1.000000" stroke="none" 
	d="
M279.840332,181.291687 
	C281.982361,185.126328 283.947632,189.247314 285.989136,193.741699 
	C286.040466,194.527451 286.015564,194.939789 285.965118,195.660995 
	C280.923920,201.706451 276.028809,207.554642 270.854370,213.144211 
	C266.716187,217.614365 262.238220,221.769958 257.911072,226.065155 
	C257.290283,225.779449 256.669464,225.493744 256.048676,225.208038 
	C256.589172,222.729462 256.644104,220.002747 257.760376,217.818420 
	C261.238586,211.012314 264.944214,204.306198 268.896484,197.763580 
	C272.243805,192.222382 276.056641,186.962433 279.840332,181.291687 
z"/>
<path fill="#306C66" opacity="1.000000" stroke="none" 
	d="
M240.920685,218.176361 
	C241.169754,218.910080 241.418808,219.643799 241.760574,220.647858 
	C241.241974,237.368332 240.772827,253.825577 239.950974,270.265167 
	C239.611526,277.055023 238.654877,283.827026 237.690979,290.565948 
	C237.332535,293.071991 236.151428,295.460388 235.345459,297.902435 
	C234.624390,297.925690 233.903336,297.948944 233.182266,297.972198 
	C232.156235,293.168549 230.673355,288.411530 230.177826,283.553802 
	C226.795502,250.396011 225.988708,217.187729 228.768372,183.932144 
	C229.044907,180.623581 228.934875,177.282700 229.018478,173.494904 
	C229.327728,172.891937 229.590576,172.705566 230.300995,172.326385 
	C232.119797,172.462662 233.458878,172.746353 234.793579,173.435196 
	C234.313690,177.300217 233.636520,180.746323 233.399292,184.222458 
	C232.577972,196.257233 234.313278,207.767471 240.920685,218.176361 
z"/>
<path fill="#60807C" opacity="1.000000" stroke="none" 
	d="
M234.797974,173.030060 
	C233.458878,172.746353 232.119797,172.462662 230.444946,172.130997 
	C230.899048,165.853973 231.688919,159.624908 232.478790,153.395859 
	C233.289886,153.305954 234.100967,153.216064 234.912064,153.126160 
	C235.900681,155.522964 236.889297,157.919785 237.977417,160.676361 
	C237.700958,164.068497 237.324997,167.100830 236.657166,170.651627 
	C235.842880,171.790070 235.320435,172.410065 234.797974,173.030060 
z"/>
<path fill="#B8BF44" opacity="1.000000" stroke="none" 
	d="
M234.793579,173.435211 
	C235.320435,172.410065 235.842880,171.790070 236.623932,171.009705 
	C237.686096,171.538986 238.489670,172.228638 239.610504,172.983322 
	C240.284271,187.769867 240.640747,202.491364 240.958954,217.694611 
	C234.313278,207.767471 232.577972,196.257233 233.399292,184.222458 
	C233.636520,180.746323 234.313690,177.300217 234.793579,173.435211 
z"/>
</svg>