<?xml version="1.0" encoding="utf-8"?>
<!-- Generator: Adobe Illustrator 16.0.0, SVG Export Plug-In . SVG Version: 6.00 Build 0)  -->
<!DOCTYPE svg PUBLIC "-//W3C//DTD SVG 1.1//EN" "http://www.w3.org/Graphics/SVG/1.1/DTD/svg11.dtd">
<svg version="1.1" id="Layer_1" xmlns="http://www.w3.org/2000/svg" xmlns:xlink="http://www.w3.org/1999/xlink" x="0px" y="0px"
	 width="320px" height="300px" viewBox="0 0 320 300" enable-background="new 0 0 320 300" xml:space="preserve">
<circle fill="#FFCD4A" cx="163" cy="114" r="51"/>
<path fill="none" stroke="#1A2051" stroke-width="9" stroke-linecap="square" stroke-linejoin="round" stroke-miterlimit="10" d="
	M61.266,121C45.103,121.26,21,113.02,21,86c0-29.896,22.667-36,43-36"/>
<path fill="none" stroke="#1A2051" stroke-width="9" stroke-linecap="square" stroke-linejoin="round" stroke-miterlimit="10" d="
	M72,42.338V40V19h176v84c0,0-0.221,20.741-5,27c0,0-1.364-58.1-53-84c-54.881-27.528-92.29,11.653-99.57,36.686
	C82.314,110.593,90.28,170.623,165,192c0,0-52.753,12.906-87.419-52.092c-0.901-1.689-3.377-8.623-3.771-10.612"/>
<polyline fill="none" stroke="#1A2051" stroke-width="9" stroke-linecap="square" stroke-miterlimit="10" points="65,121 
	72.784,121 72.784,126 73.673,128.99 "/>
<path fill="none" stroke="#1B204E" stroke-miterlimit="10" d="M5.36,156.113"/>
<path fill="none" stroke="#1A2051" stroke-width="9" stroke-linecap="round" stroke-linejoin="round" stroke-miterlimit="10" d="
	M137,60c0,0,46.149-16.972,75,30c21.385,34.818,6.591,59.142,1,67c0,0-14.584,2.199-27-6c-7.96-5.256-15.662-11.728-15-31
	c0.314-9.169,2.892-18.745-3-33C163.368,75.793,156.024,67.698,137,60z"/>
<path fill="none" stroke="#1A2051" stroke-width="9" stroke-linecap="round" stroke-linejoin="round" stroke-miterlimit="10" d="
	M124,147c28.017,35.855,70,23,70,23s-21.47-6.536-32-24c-4.519-7.49-4.931-12.676-5-29c-0.049-11.44,3.17-19.482-7-32
	c-7.801-9.602-20.85-12.821-29-14C115.012,73.994,90.568,104.213,124,147z"/>
<path fill="none" stroke="#1A2051" stroke-width="9" stroke-miterlimit="10" d="M71,71v30H53c0,0-12-1.225-12-15s12-15,12-15H71z"/>
<polygon fill="#1A2051" points="76.5,54.5 61.266,54.5 61.266,45.5 67.5,45.5 67.5,39.053 76.5,39.053 "/>
<g>
	<path fill="#1A2051" d="M17.148,202.865h11.295v26.223h0.224c1.122-2.288,2.319-4.4,3.441-6.512l11.444-19.711h13.987
		l-16.68,25.255l17.578,34.055H45.122l-12.341-25.607l-4.338,6.248v19.359H17.148V202.865z"/>
	<path fill="#1A2051" d="M77.66,246.951l-3.59,15.224H62.251l15.409-59.31h14.959l15.633,59.31H95.986l-3.89-15.224H77.66z
		 M90.45,236.92l-3.142-12.584c-0.897-3.52-1.795-7.92-2.543-11.439h-0.15c-0.748,3.52-1.496,8.008-2.319,11.439l-2.992,12.584
		H90.45z"/>
	<path fill="#1A2051" d="M116.854,202.865h30.817v10.999h-19.373v13.552H146.4v10.911h-18.101v23.848h-11.444V202.865z"/>
	<path fill="#1A2051" d="M188.137,237.096h-18.55v14.079h20.72v11h-32.164v-59.31h31.116v10.999h-19.672v12.319h18.55V237.096z"/>
	<path fill="#1A2051" d="M218.305,207.177c0,3.695-2.394,6.688-6.133,6.688c-3.591,0-5.984-2.992-5.909-6.688
		c-0.075-3.872,2.318-6.776,5.983-6.776S218.231,203.305,218.305,207.177z M206.562,262.175v-43.03h11.369v43.03H206.562z"/>
	<path fill="#1A2051" d="M228.926,232.872c0-5.368-0.149-9.944-0.299-13.728h9.873l0.523,5.896h0.225
		c1.496-2.729,5.236-6.864,11.295-6.864c7.479,0,13.09,5.809,13.09,18.479v25.52h-11.37v-23.848c0-5.544-1.646-9.327-5.759-9.327
		c-3.142,0-5.012,2.552-5.76,5.016c-0.299,0.792-0.449,2.112-0.449,3.344v24.815h-11.369V232.872z"/>
	<path fill="#1A2051" d="M283.38,244.928c0.374,5.543,5.011,8.184,10.322,8.184c3.89,0,7.03-0.616,10.098-1.76l1.496,9.063
		c-3.74,1.76-8.303,2.64-13.239,2.64c-12.417,0-19.522-8.447-19.522-21.911c0-10.912,5.759-22.968,18.475-22.968
		c11.818,0,16.307,10.824,16.307,21.472c0,2.288-0.225,4.312-0.374,5.28H283.38z M296.769,235.775c0-3.256-1.197-8.712-6.433-8.712
		c-4.787,0-6.732,5.104-7.031,8.712H296.769z"/>
	<g>
		<path fill="#FFCD4A" d="M28.401,282.906c0.284,0.437,0.522,0.784,0.715,1.043c0.192,0.258,0.362,0.46,0.507,0.605
			s0.29,0.257,0.432,0.333c0.142,0.077,0.329,0.147,0.562,0.213v0.71H24.7v-0.721c0.248-0.036,0.415-0.097,0.502-0.18
			c0.087-0.084,0.131-0.195,0.131-0.333c0-0.116-0.017-0.231-0.049-0.345c-0.033-0.112-0.111-0.278-0.234-0.496
			c-0.124-0.219-0.375-0.619-0.753-1.201l-1.67-2.577c-0.204-0.313-0.381-0.557-0.53-0.731c-0.149-0.174-0.298-0.3-0.448-0.376
			c-0.149-0.077-0.354-0.115-0.617-0.115h-0.218v4.335c0,0.255,0.007,0.491,0.021,0.71c0.015,0.218,0.044,0.396,0.087,0.534
			c0.044,0.139,0.107,0.255,0.191,0.35c0.083,0.095,0.198,0.177,0.344,0.246s0.324,0.129,0.535,0.18v0.721H16.26v-0.721
			c0.269-0.072,0.482-0.15,0.639-0.234c0.156-0.084,0.273-0.2,0.349-0.35c0.077-0.149,0.125-0.339,0.147-0.567
			c0.022-0.229,0.033-0.519,0.033-0.868v-9.411c0-0.343-0.009-0.63-0.027-0.863c-0.018-0.232-0.065-0.422-0.142-0.567
			c-0.077-0.146-0.193-0.264-0.35-0.354c-0.157-0.091-0.373-0.173-0.649-0.246v-0.721h5.732v0.721
			c-0.306,0.08-0.53,0.168-0.671,0.262c-0.142,0.095-0.248,0.208-0.317,0.339s-0.118,0.299-0.147,0.502
			c-0.029,0.204-0.043,0.514-0.043,0.929v3.887h0.229c0.335,0,0.601-0.037,0.797-0.109c0.196-0.073,0.398-0.204,0.606-0.394
			c0.207-0.188,0.607-0.631,1.201-1.326s1.022-1.229,1.289-1.604c0.266-0.375,0.447-0.685,0.546-0.929
			c0.098-0.243,0.147-0.485,0.147-0.726c0-0.255-0.086-0.455-0.257-0.601s-0.413-0.222-0.726-0.229v-0.721h5.579v0.742
			c-0.276,0.052-0.513,0.128-0.709,0.229c-0.197,0.103-0.422,0.268-0.677,0.497c-0.254,0.229-0.579,0.566-0.972,1.01l-3.275,3.669
			L28.401,282.906z"/>
		<path fill="#FFCD4A" d="M41.885,270.907v3.472H40.39c-0.24-0.691-0.444-1.158-0.612-1.402s-0.368-0.437-0.6-0.579
			c-0.233-0.142-0.63-0.213-1.19-0.213h-2.38v5.241h1.441c0.32,0,0.571-0.046,0.753-0.137s0.333-0.242,0.453-0.453
			s0.235-0.539,0.344-0.982h1.234v4.433h-1.234c-0.102-0.422-0.214-0.744-0.338-0.967c-0.124-0.222-0.271-0.38-0.442-0.475
			c-0.171-0.095-0.428-0.142-0.77-0.142h-1.441v5.83h2.369c0.255,0,0.469-0.017,0.644-0.049c0.175-0.033,0.331-0.09,0.47-0.17
			c0.138-0.08,0.271-0.188,0.398-0.327c0.127-0.139,0.24-0.287,0.338-0.447s0.202-0.372,0.311-0.634
			c0.109-0.262,0.229-0.622,0.36-1.081h1.496l-0.207,3.985H31.055v-0.721c0.269-0.072,0.482-0.15,0.639-0.234
			c0.156-0.084,0.273-0.2,0.349-0.35c0.077-0.149,0.125-0.339,0.147-0.567c0.022-0.229,0.033-0.519,0.033-0.868v-9.411
			c0-0.343-0.009-0.63-0.027-0.863c-0.018-0.232-0.065-0.422-0.142-0.567c-0.077-0.146-0.193-0.264-0.35-0.354
			c-0.157-0.091-0.373-0.173-0.649-0.246v-0.721H41.885z"/>
		<path fill="#FFCD4A" d="M51.123,281.192h-4.662l-0.36,1.037c-0.102,0.291-0.186,0.573-0.251,0.846
			c-0.065,0.273-0.099,0.563-0.099,0.868c0,0.714,0.378,1.096,1.136,1.146v0.721h-4.662v-0.721c0.269-0.029,0.506-0.124,0.71-0.284
			c0.204-0.159,0.389-0.378,0.557-0.654c0.167-0.277,0.346-0.674,0.535-1.19l4.553-12.13h2.915l3.603,12.229
			c0.16,0.546,0.294,0.934,0.404,1.162c0.109,0.229,0.251,0.415,0.426,0.557c0.175,0.143,0.418,0.246,0.731,0.312v0.721h-6.027
			v-0.721c0.378-0.044,0.659-0.149,0.841-0.316s0.273-0.404,0.273-0.71c0-0.226-0.025-0.477-0.076-0.753
			c-0.051-0.276-0.135-0.626-0.251-1.049L51.123,281.192z M46.876,279.915h3.93l-1.747-6.147L46.876,279.915z"/>
		<path fill="#FFCD4A" d="M58.492,270.176c0.167,0.575,0.251,1.125,0.251,1.648c0,0.531-0.098,1.018-0.295,1.458
			c-0.196,0.44-0.487,0.858-0.873,1.256c-0.386,0.396-0.906,0.82-1.562,1.271l-0.884-0.938c0.342-0.364,0.595-0.771,0.759-1.218
			s0.246-0.97,0.246-1.566c0-0.343-0.016-0.664-0.049-0.967c-0.033-0.302-0.082-0.616-0.147-0.944H58.492z"/>
		<path fill="#FFCD4A" d="M61.615,282.862c0.175,0.663,0.452,1.159,0.83,1.49c0.378,0.332,0.884,0.497,1.518,0.497
			c0.546,0,0.959-0.123,1.239-0.371c0.28-0.247,0.42-0.607,0.42-1.081c0-0.298-0.064-0.553-0.191-0.764s-0.338-0.413-0.633-0.606
			c-0.294-0.192-0.799-0.445-1.512-0.759c-0.4-0.175-0.777-0.367-1.13-0.578c-0.353-0.212-0.661-0.45-0.922-0.716
			c-0.262-0.266-0.47-0.563-0.623-0.89s-0.229-0.691-0.229-1.092c0-0.655,0.189-1.223,0.567-1.703s0.919-0.848,1.622-1.103
			c0.702-0.255,1.505-0.383,2.407-0.383c0.531,0,1.052,0.022,1.562,0.066c0.509,0.043,1.168,0.138,1.976,0.283v2.544h-1.441
			c-0.168-0.466-0.352-0.826-0.552-1.081c-0.2-0.254-0.42-0.431-0.66-0.529c-0.24-0.098-0.528-0.147-0.863-0.147
			c-0.48,0-0.862,0.109-1.146,0.328c-0.284,0.218-0.426,0.523-0.426,0.917c0,0.276,0.051,0.513,0.153,0.709
			c0.102,0.197,0.284,0.388,0.546,0.573c0.262,0.186,0.768,0.436,1.518,0.748c0.684,0.284,1.241,0.581,1.67,0.89
			c0.43,0.31,0.757,0.666,0.983,1.07s0.338,0.875,0.338,1.414c0,0.59-0.109,1.097-0.328,1.522c-0.218,0.427-0.524,0.777-0.917,1.054
			c-0.393,0.277-0.864,0.482-1.414,0.617c-0.549,0.135-1.155,0.202-1.818,0.202c-1.201,0-2.537-0.171-4.007-0.514v-2.609H61.615z"/>
		<path fill="#FFCD4A" d="M82.372,281.192H77.71l-0.36,1.037c-0.102,0.291-0.186,0.573-0.251,0.846
			c-0.065,0.273-0.099,0.563-0.099,0.868c0,0.714,0.378,1.096,1.136,1.146v0.721h-4.662v-0.721c0.269-0.029,0.506-0.124,0.71-0.284
			c0.204-0.159,0.389-0.378,0.557-0.654c0.167-0.277,0.346-0.674,0.535-1.19l4.553-12.13h2.915l3.603,12.229
			c0.16,0.546,0.294,0.934,0.404,1.162c0.109,0.229,0.251,0.415,0.426,0.557c0.175,0.143,0.418,0.246,0.731,0.312v0.721H81.88
			v-0.721c0.378-0.044,0.659-0.149,0.841-0.316s0.273-0.404,0.273-0.71c0-0.226-0.025-0.477-0.076-0.753
			c-0.051-0.276-0.135-0.626-0.251-1.049L82.372,281.192z M78.125,279.915h3.93l-1.747-6.147L78.125,279.915z"/>
		<path fill="#FFCD4A" d="M98.891,282.622c0,0.554,0.009,0.958,0.027,1.212c0.018,0.255,0.06,0.459,0.125,0.611
			c0.065,0.153,0.171,0.279,0.316,0.377c0.146,0.099,0.39,0.185,0.732,0.257v0.731l-2.97,0.099h-1.321l0.098-1.572l-0.164-0.011
			c-0.524,0.531-1.076,0.94-1.654,1.228c-0.579,0.288-1.134,0.432-1.665,0.432c-1.325,0-2.316-0.455-2.975-1.365
			c-0.659-0.909-0.988-2.277-0.988-4.104c0-1.237,0.2-2.28,0.6-3.128c0.4-0.849,0.996-1.491,1.785-1.928
			c0.79-0.437,1.742-0.655,2.855-0.655c0.32,0,0.635,0.021,0.945,0.061c0.309,0.04,0.675,0.118,1.097,0.234v-0.993
			c0-0.778-0.011-1.33-0.033-1.654c-0.022-0.323-0.067-0.571-0.137-0.742s-0.173-0.304-0.311-0.398s-0.39-0.179-0.753-0.251v-0.731
			l3.024-0.153h1.365V282.622z M95.736,278.561c0-0.888-0.149-1.546-0.448-1.976s-0.757-0.645-1.375-0.645
			c-0.452,0-0.839,0.162-1.163,0.486c-0.324,0.323-0.567,0.791-0.731,1.402c-0.164,0.611-0.246,1.336-0.246,2.173
			c0,1.435,0.156,2.504,0.47,3.21c0.313,0.706,0.8,1.06,1.463,1.06c0.313,0,0.624-0.078,0.934-0.235
			c0.309-0.156,0.569-0.396,0.78-0.721c0.211-0.323,0.317-0.696,0.317-1.119V278.561z"/>
		<path fill="#FFCD4A" d="M111.131,283.823c-0.743,0.786-1.478,1.343-2.206,1.671c-0.728,0.327-1.565,0.491-2.511,0.491
			c-1.696,0-2.971-0.464-3.827-1.393c-0.855-0.928-1.283-2.305-1.283-4.132c0-1.18,0.22-2.196,0.661-3.052
			c0.44-0.855,1.064-1.503,1.872-1.943c0.808-0.44,1.747-0.661,2.817-0.661c0.663,0,1.243,0.077,1.742,0.229
			c0.499,0.153,0.926,0.366,1.283,0.639c0.356,0.273,0.651,0.603,0.884,0.988c0.277,0.459,0.484,0.982,0.623,1.572
			c0.146,0.604,0.222,1.336,0.229,2.194h-6.922c0.007,1.317,0.242,2.287,0.704,2.91c0.462,0.622,1.167,0.934,2.113,0.934
			c0.553,0,1.052-0.104,1.496-0.312s0.924-0.573,1.441-1.098L111.131,283.823z M108.183,279.249
			c-0.029-1.114-0.175-1.943-0.437-2.489c-0.262-0.546-0.684-0.819-1.267-0.819c-0.561,0-1.006,0.284-1.337,0.852
			c-0.331,0.568-0.529,1.387-0.595,2.457H108.183z"/>
		<path fill="#FFCD4A" d="M116.754,287.765c0,0.546,0.029,0.932,0.087,1.157c0.058,0.226,0.162,0.404,0.311,0.535
			c0.149,0.131,0.413,0.24,0.792,0.328v0.72h-5.437v-0.72c0.342-0.103,0.58-0.215,0.715-0.339s0.231-0.297,0.29-0.519
			c0.058-0.223,0.087-0.609,0.087-1.163v-9.553c0-0.517-0.006-0.885-0.017-1.104c-0.011-0.218-0.037-0.403-0.076-0.557
			c-0.041-0.152-0.097-0.278-0.169-0.376c-0.073-0.099-0.18-0.185-0.322-0.257c-0.142-0.073-0.351-0.139-0.627-0.196v-0.743
			l3.024-0.087h1.343l-0.164,1.583l0.131,0.033c0.625-0.604,1.21-1.039,1.752-1.305c0.542-0.266,1.101-0.399,1.676-0.399
			c1.295,0,2.267,0.457,2.915,1.371c0.647,0.913,0.972,2.279,0.972,4.1c0,1.259-0.191,2.313-0.573,3.16
			c-0.382,0.849-0.952,1.485-1.708,1.911c-0.757,0.426-1.689,0.639-2.795,0.639c-0.75,0-1.485-0.095-2.205-0.284V287.765z
			 M116.754,282.229c0,0.896,0.154,1.556,0.464,1.981c0.309,0.426,0.788,0.639,1.436,0.639c0.67,0,1.181-0.351,1.534-1.054
			c0.353-0.702,0.529-1.705,0.529-3.008c0-1.448-0.158-2.521-0.475-3.221c-0.317-0.698-0.81-1.048-1.479-1.048
			c-0.328,0-0.646,0.084-0.956,0.251c-0.309,0.167-0.562,0.405-0.759,0.715c-0.196,0.31-0.294,0.657-0.294,1.043V282.229z"/>
		<path fill="#FFCD4A" d="M133.044,284.5c-0.641,0.546-1.223,0.931-1.747,1.152c-0.524,0.222-1.078,0.333-1.66,0.333
			c-1.084,0-1.895-0.293-2.429-0.879c-0.535-0.586-0.803-1.473-0.803-2.658v-6.104h-1.365v-0.754
			c0.444-0.072,0.771-0.182,0.983-0.327c0.211-0.146,0.375-0.34,0.491-0.584c0.116-0.244,0.209-0.563,0.278-0.955
			c0.069-0.394,0.122-0.885,0.158-1.475h2.609v2.729h3.112v1.365h-3.112v4.924c0,0.822,0.039,1.431,0.115,1.823
			c0.077,0.394,0.206,0.683,0.388,0.868c0.182,0.186,0.408,0.278,0.677,0.278c0.204,0,0.386-0.018,0.546-0.055
			c0.16-0.036,0.33-0.102,0.508-0.196s0.366-0.229,0.563-0.404L133.044,284.5z"/>
		<path fill="#FFCD4A" d="M142.434,283.07c0,0.386,0.011,0.679,0.033,0.879s0.062,0.362,0.12,0.485
			c0.058,0.124,0.129,0.225,0.213,0.301c0.083,0.076,0.2,0.146,0.349,0.207c0.149,0.063,0.351,0.111,0.606,0.147v0.721h-5.874
			v-0.721c0.269-0.065,0.482-0.142,0.639-0.229c0.156-0.087,0.273-0.205,0.349-0.354c0.077-0.149,0.125-0.34,0.147-0.573
			c0.022-0.232,0.033-0.524,0.033-0.873v-9.4c0-0.343-0.009-0.63-0.027-0.863c-0.018-0.232-0.065-0.422-0.142-0.567
			c-0.077-0.146-0.193-0.264-0.35-0.354c-0.157-0.091-0.373-0.173-0.649-0.246v-0.721h10.558v3.472h-1.496
			c-0.24-0.691-0.444-1.158-0.612-1.402s-0.368-0.437-0.6-0.579c-0.233-0.142-0.63-0.213-1.19-0.213h-2.107v5.558h1.397
			c0.342,0,0.606-0.053,0.792-0.158s0.338-0.282,0.458-0.529c0.12-0.248,0.22-0.597,0.3-1.049h1.234v4.761h-1.234
			c-0.087-0.459-0.193-0.813-0.316-1.064c-0.124-0.251-0.277-0.428-0.459-0.529c-0.182-0.103-0.44-0.153-0.775-0.153h-1.397V283.07z
			"/>
		<path fill="#FFCD4A" d="M149.084,274.979h4.247v6.06c0,0.699,0.022,1.245,0.065,1.638c0.044,0.394,0.127,0.704,0.251,0.934
			c0.124,0.229,0.274,0.397,0.453,0.502c0.178,0.106,0.405,0.159,0.682,0.159c0.269,0,0.553-0.084,0.852-0.252
			c0.298-0.167,0.551-0.401,0.759-0.704c0.208-0.302,0.311-0.624,0.311-0.966v-4.215c0-0.531-0.011-0.926-0.033-1.185
			c-0.021-0.258-0.063-0.46-0.125-0.605s-0.158-0.268-0.289-0.366c-0.131-0.098-0.346-0.19-0.645-0.278v-0.721h4.258v7.643
			c0,0.554,0.009,0.958,0.027,1.212c0.018,0.255,0.06,0.459,0.125,0.611c0.065,0.153,0.171,0.279,0.316,0.377
			c0.146,0.099,0.39,0.185,0.732,0.257v0.731l-2.97,0.099h-1.321l0.098-1.572l-0.131-0.033c-0.677,0.626-1.281,1.063-1.813,1.311
			c-0.531,0.247-1.066,0.371-1.605,0.371c-0.771,0-1.388-0.144-1.851-0.432c-0.462-0.287-0.795-0.709-0.999-1.267
			c-0.204-0.557-0.306-1.275-0.306-2.156v-3.996c0-0.407-0.005-0.72-0.016-0.938c-0.011-0.219-0.027-0.388-0.049-0.508
			s-0.053-0.229-0.093-0.327c-0.04-0.099-0.095-0.188-0.164-0.268c-0.069-0.08-0.164-0.153-0.284-0.219s-0.282-0.124-0.486-0.175
			V274.979z"/>
		<path fill="#FFCD4A" d="M169.698,284.5c-0.641,0.546-1.224,0.931-1.747,1.152c-0.524,0.222-1.077,0.333-1.66,0.333
			c-1.084,0-1.894-0.293-2.429-0.879s-0.803-1.473-0.803-2.658v-6.104h-1.364v-0.754c0.443-0.072,0.771-0.182,0.982-0.327
			s0.375-0.34,0.491-0.584s0.209-0.563,0.278-0.955c0.069-0.394,0.122-0.885,0.158-1.475h2.609v2.729h3.112v1.365h-3.112v4.924
			c0,0.822,0.038,1.431,0.115,1.823c0.076,0.394,0.205,0.683,0.387,0.868c0.183,0.186,0.408,0.278,0.678,0.278
			c0.203,0,0.386-0.018,0.546-0.055c0.16-0.036,0.329-0.102,0.508-0.196c0.178-0.095,0.365-0.229,0.562-0.404L169.698,284.5z"/>
		<path fill="#FFCD4A" d="M169.709,274.979h4.247v6.06c0,0.699,0.021,1.245,0.065,1.638c0.043,0.394,0.127,0.704,0.251,0.934
			c0.123,0.229,0.274,0.397,0.453,0.502c0.178,0.106,0.405,0.159,0.683,0.159c0.269,0,0.553-0.084,0.852-0.252
			c0.298-0.167,0.551-0.401,0.759-0.704c0.207-0.302,0.311-0.624,0.311-0.966v-4.215c0-0.531-0.011-0.926-0.032-1.185
			c-0.022-0.258-0.064-0.46-0.126-0.605s-0.158-0.268-0.289-0.366c-0.131-0.098-0.346-0.19-0.645-0.278v-0.721h4.258v7.643
			c0,0.554,0.01,0.958,0.027,1.212c0.019,0.255,0.061,0.459,0.126,0.611c0.065,0.153,0.171,0.279,0.316,0.377
			c0.146,0.099,0.39,0.185,0.731,0.257v0.731l-2.97,0.099h-1.321l0.099-1.572l-0.131-0.033c-0.677,0.626-1.281,1.063-1.813,1.311
			c-0.531,0.247-1.066,0.371-1.604,0.371c-0.772,0-1.389-0.144-1.851-0.432c-0.463-0.287-0.796-0.709-0.999-1.267
			c-0.204-0.557-0.306-1.275-0.306-2.156v-3.996c0-0.407-0.006-0.72-0.017-0.938s-0.027-0.388-0.05-0.508
			c-0.021-0.12-0.053-0.229-0.093-0.327c-0.04-0.099-0.095-0.188-0.163-0.268c-0.069-0.08-0.164-0.153-0.284-0.219
			s-0.282-0.124-0.485-0.175V274.979z"/>
		<path fill="#FFCD4A" d="M186.927,276.541l0.142,0.033c0.531-0.626,1.077-1.077,1.638-1.354c0.561-0.276,1.168-0.415,1.823-0.415
			c0.444,0,0.91,0.048,1.397,0.143v3.014h-1.976c-0.124-0.423-0.286-0.746-0.486-0.973c-0.2-0.225-0.468-0.338-0.803-0.338
			c-0.16,0-0.337,0.049-0.529,0.147c-0.193,0.098-0.371,0.236-0.535,0.415c-0.163,0.178-0.28,0.36-0.35,0.546
			c-0.068,0.186-0.114,0.373-0.136,0.562c-0.022,0.189-0.033,0.474-0.033,0.853v3.482c0,0.691,0.025,1.176,0.076,1.452
			s0.153,0.493,0.306,0.649c0.153,0.156,0.411,0.268,0.775,0.333v0.721h-5.383v-0.721c0.35-0.095,0.592-0.218,0.727-0.371
			s0.226-0.36,0.272-0.622c0.048-0.263,0.071-0.739,0.071-1.431v-4.487c0-0.538-0.009-0.937-0.027-1.195s-0.062-0.466-0.131-0.622
			c-0.069-0.157-0.175-0.284-0.316-0.383c-0.143-0.098-0.388-0.184-0.737-0.256v-0.743l2.991-0.087h1.376L186.927,276.541z"/>
		<path fill="#FFCD4A" d="M202.278,283.823c-0.742,0.786-1.478,1.343-2.205,1.671c-0.728,0.327-1.565,0.491-2.511,0.491
			c-1.696,0-2.972-0.464-3.827-1.393c-0.855-0.928-1.283-2.305-1.283-4.132c0-1.18,0.221-2.196,0.661-3.052s1.064-1.503,1.872-1.943
			s1.747-0.661,2.817-0.661c0.662,0,1.242,0.077,1.741,0.229c0.498,0.153,0.926,0.366,1.283,0.639
			c0.356,0.273,0.65,0.603,0.884,0.988c0.276,0.459,0.484,0.982,0.622,1.572c0.146,0.604,0.223,1.336,0.229,2.194h-6.922
			c0.007,1.317,0.242,2.287,0.704,2.91c0.462,0.622,1.166,0.934,2.112,0.934c0.554,0,1.052-0.104,1.496-0.312
			s0.925-0.573,1.441-1.098L202.278,283.823z M199.33,279.249c-0.029-1.114-0.175-1.943-0.437-2.489
			c-0.263-0.546-0.685-0.819-1.267-0.819c-0.561,0-1.007,0.284-1.338,0.852c-0.331,0.568-0.529,1.387-0.595,2.457H199.33z"/>
		<path fill="#FFCD4A" d="M219.235,270.907v3.472h-1.496c-0.24-0.691-0.443-1.158-0.611-1.402c-0.167-0.244-0.367-0.437-0.601-0.579
			c-0.232-0.142-0.63-0.213-1.189-0.213h-2.381v5.241h1.441c0.32,0,0.571-0.046,0.754-0.137c0.182-0.091,0.333-0.242,0.453-0.453
			s0.234-0.539,0.344-0.982h1.233v4.433h-1.233c-0.103-0.422-0.215-0.744-0.339-0.967c-0.124-0.222-0.271-0.38-0.442-0.475
			s-0.428-0.142-0.77-0.142h-1.441v5.83h2.369c0.255,0,0.47-0.017,0.645-0.049c0.175-0.033,0.331-0.09,0.47-0.17
			c0.138-0.08,0.271-0.188,0.398-0.327c0.127-0.139,0.24-0.287,0.338-0.447c0.099-0.16,0.202-0.372,0.312-0.634
			s0.229-0.622,0.36-1.081h1.496l-0.208,3.985h-10.732v-0.721c0.27-0.072,0.482-0.15,0.639-0.234c0.157-0.084,0.273-0.2,0.35-0.35
			s0.126-0.339,0.147-0.567c0.021-0.229,0.033-0.519,0.033-0.868v-9.411c0-0.343-0.01-0.63-0.027-0.863
			c-0.019-0.232-0.065-0.422-0.143-0.567c-0.076-0.146-0.192-0.264-0.349-0.354c-0.157-0.091-0.374-0.173-0.65-0.246v-0.721H219.235
			z"/>
		<path fill="#FFCD4A" d="M232.631,285.811h-5.295v-0.721c0.335-0.08,0.567-0.198,0.698-0.354c0.132-0.156,0.221-0.368,0.268-0.634
			c0.048-0.266,0.071-0.744,0.071-1.436v-2.915c0-0.517-0.011-0.94-0.033-1.271c-0.021-0.331-0.056-0.603-0.104-0.813
			c-0.047-0.211-0.112-0.388-0.196-0.53c-0.084-0.142-0.177-0.258-0.278-0.349c-0.103-0.091-0.219-0.158-0.35-0.202
			s-0.299-0.065-0.502-0.065c-0.276,0-0.564,0.085-0.862,0.256c-0.299,0.172-0.55,0.408-0.754,0.71
			c-0.204,0.303-0.306,0.624-0.306,0.967v4.203c0,0.691,0.022,1.172,0.065,1.441c0.044,0.27,0.133,0.482,0.268,0.639
			s0.373,0.274,0.715,0.354v0.721h-5.273v-0.721c0.35-0.095,0.592-0.218,0.727-0.371s0.226-0.36,0.272-0.622
			c0.048-0.263,0.071-0.739,0.071-1.431v-4.487c0-0.538-0.009-0.937-0.027-1.195s-0.062-0.466-0.131-0.622
			c-0.069-0.157-0.175-0.284-0.316-0.383c-0.143-0.098-0.388-0.184-0.737-0.256v-0.743l2.991-0.087h1.376l-0.164,1.572l0.132,0.032
			c0.451-0.399,0.848-0.715,1.189-0.944c0.343-0.229,0.701-0.411,1.076-0.546c0.374-0.135,0.77-0.202,1.185-0.202
			c0.597,0,1.092,0.086,1.484,0.257c0.394,0.171,0.711,0.421,0.955,0.748s0.419,0.728,0.524,1.201
			c0.105,0.473,0.158,1.022,0.158,1.648v3.996c0,0.32,0.006,0.62,0.017,0.9s0.038,0.505,0.082,0.672
			c0.043,0.167,0.104,0.304,0.18,0.409s0.184,0.195,0.322,0.268c0.138,0.073,0.306,0.135,0.502,0.186V285.811z"/>
		<path fill="#FFCD4A" d="M244.369,276.442l-1.867-0.207l-0.044,0.12c0.204,0.204,0.373,0.482,0.508,0.835
			c0.135,0.354,0.202,0.777,0.202,1.272c0,1.267-0.384,2.228-1.152,2.882c-0.768,0.655-1.897,0.983-3.39,0.983
			c-0.721,0-1.311-0.066-1.769-0.197c-0.364,0.328-0.546,0.681-0.546,1.06c0,0.218,0.045,0.386,0.136,0.502
			c0.092,0.116,0.246,0.206,0.465,0.268c0.218,0.062,0.527,0.093,0.928,0.093h2.708c1.215,0,2.125,0.236,2.729,0.71
			c0.604,0.473,0.906,1.208,0.906,2.205c0,0.779-0.221,1.448-0.661,2.009s-1.071,0.988-1.895,1.283
			c-0.822,0.295-1.798,0.442-2.926,0.442c-0.822,0-1.568-0.037-2.238-0.109c-0.67-0.073-1.241-0.206-1.714-0.398
			c-0.474-0.193-0.839-0.457-1.098-0.792c-0.258-0.335-0.388-0.761-0.388-1.277c0-0.415,0.132-0.797,0.394-1.146
			c0.262-0.349,0.63-0.647,1.103-0.895c-0.306-0.219-0.527-0.47-0.666-0.754s-0.207-0.633-0.207-1.048
			c0-0.342,0.07-0.662,0.213-0.961c0.142-0.299,0.331-0.569,0.567-0.813s0.544-0.512,0.923-0.803
			c-0.568-0.32-0.997-0.74-1.288-1.261c-0.292-0.521-0.438-1.13-0.438-1.829c0-0.677,0.122-1.257,0.366-1.741
			c0.244-0.483,0.578-0.879,1.004-1.185c0.427-0.306,0.929-0.529,1.507-0.672c0.579-0.142,1.203-0.213,1.873-0.213
			c0.371,0,0.698,0.019,0.982,0.055c0.284,0.037,0.561,0.077,0.83,0.12h3.941V276.442z M236.607,286.51
			c-0.263,0.203-0.461,0.426-0.596,0.666c-0.135,0.239-0.202,0.517-0.202,0.829c0,0.524,0.228,0.912,0.683,1.163
			s1.174,0.377,2.156,0.377c0.917,0,1.614-0.153,2.091-0.459s0.716-0.735,0.716-1.288c0-0.248-0.044-0.459-0.132-0.634
			c-0.087-0.175-0.258-0.32-0.513-0.437s-0.615-0.175-1.081-0.175h-1.878C237.32,286.553,236.905,286.538,236.607,286.51z
			 M236.999,278.484c0,0.917,0.129,1.6,0.388,2.047c0.258,0.448,0.664,0.672,1.218,0.672c0.502,0,0.886-0.207,1.151-0.622
			s0.398-1.049,0.398-1.9c0-0.895-0.129-1.577-0.388-2.047c-0.258-0.47-0.653-0.704-1.185-0.704c-0.538,0-0.938,0.209-1.195,0.628
			C237.128,276.977,236.999,277.618,236.999,278.484z"/>
		<path fill="#FFCD4A" d="M244.981,285.09c0.356-0.095,0.603-0.218,0.737-0.371s0.226-0.36,0.272-0.622
			c0.048-0.263,0.071-0.739,0.071-1.431v-5.077c0-0.356-0.017-0.644-0.049-0.862c-0.033-0.218-0.095-0.393-0.186-0.523
			c-0.092-0.132-0.215-0.231-0.371-0.301c-0.157-0.069-0.359-0.129-0.606-0.18v-0.743l3.003-0.087h1.364v7.763
			c0,0.407,0.006,0.723,0.017,0.944s0.027,0.394,0.049,0.513c0.022,0.12,0.053,0.229,0.093,0.322
			c0.04,0.095,0.093,0.183,0.158,0.263s0.16,0.152,0.284,0.218s0.287,0.124,0.491,0.175v0.721h-5.328V285.09z M249.13,270.624v2.675
			h-2.992v-2.675H249.13z"/>
		<path fill="#FFCD4A" d="M263.444,285.811h-5.295v-0.721c0.335-0.08,0.567-0.198,0.698-0.354c0.132-0.156,0.221-0.368,0.268-0.634
			c0.048-0.266,0.071-0.744,0.071-1.436v-2.915c0-0.517-0.011-0.94-0.033-1.271c-0.021-0.331-0.056-0.603-0.104-0.813
			c-0.047-0.211-0.112-0.388-0.196-0.53c-0.084-0.142-0.177-0.258-0.278-0.349c-0.103-0.091-0.219-0.158-0.35-0.202
			s-0.299-0.065-0.502-0.065c-0.276,0-0.564,0.085-0.862,0.256c-0.299,0.172-0.55,0.408-0.754,0.71
			c-0.204,0.303-0.306,0.624-0.306,0.967v4.203c0,0.691,0.022,1.172,0.065,1.441c0.044,0.27,0.133,0.482,0.268,0.639
			s0.373,0.274,0.715,0.354v0.721h-5.273v-0.721c0.35-0.095,0.592-0.218,0.727-0.371s0.226-0.36,0.272-0.622
			c0.048-0.263,0.071-0.739,0.071-1.431v-4.487c0-0.538-0.009-0.937-0.027-1.195s-0.062-0.466-0.131-0.622
			c-0.069-0.157-0.175-0.284-0.316-0.383c-0.143-0.098-0.388-0.184-0.737-0.256v-0.743l2.991-0.087h1.376l-0.164,1.572l0.132,0.032
			c0.451-0.399,0.848-0.715,1.189-0.944c0.343-0.229,0.701-0.411,1.076-0.546c0.374-0.135,0.77-0.202,1.185-0.202
			c0.597,0,1.092,0.086,1.484,0.257c0.394,0.171,0.711,0.421,0.955,0.748s0.419,0.728,0.524,1.201
			c0.105,0.473,0.158,1.022,0.158,1.648v3.996c0,0.32,0.006,0.62,0.017,0.9s0.038,0.505,0.082,0.672
			c0.043,0.167,0.104,0.304,0.18,0.409s0.184,0.195,0.322,0.268c0.138,0.073,0.306,0.135,0.502,0.186V285.811z"/>
		<path fill="#FFCD4A" d="M274.504,283.823c-0.742,0.786-1.478,1.343-2.205,1.671c-0.728,0.327-1.565,0.491-2.511,0.491
			c-1.696,0-2.972-0.464-3.827-1.393c-0.855-0.928-1.283-2.305-1.283-4.132c0-1.18,0.221-2.196,0.661-3.052s1.064-1.503,1.872-1.943
			s1.747-0.661,2.817-0.661c0.662,0,1.242,0.077,1.741,0.229c0.498,0.153,0.926,0.366,1.283,0.639
			c0.356,0.273,0.65,0.603,0.884,0.988c0.276,0.459,0.484,0.982,0.622,1.572c0.146,0.604,0.223,1.336,0.229,2.194h-6.922
			c0.007,1.317,0.242,2.287,0.704,2.91c0.462,0.622,1.166,0.934,2.112,0.934c0.554,0,1.052-0.104,1.496-0.312
			s0.925-0.573,1.441-1.098L274.504,283.823z M271.557,279.249c-0.029-1.114-0.175-1.943-0.437-2.489
			c-0.263-0.546-0.685-0.819-1.267-0.819c-0.561,0-1.007,0.284-1.338,0.852c-0.331,0.568-0.529,1.387-0.595,2.457H271.557z"/>
		<path fill="#FFCD4A" d="M285.924,283.823c-0.742,0.786-1.478,1.343-2.205,1.671c-0.728,0.327-1.565,0.491-2.511,0.491
			c-1.696,0-2.972-0.464-3.827-1.393c-0.855-0.928-1.283-2.305-1.283-4.132c0-1.18,0.221-2.196,0.661-3.052s1.064-1.503,1.872-1.943
			s1.747-0.661,2.817-0.661c0.662,0,1.242,0.077,1.741,0.229c0.498,0.153,0.926,0.366,1.283,0.639
			c0.356,0.273,0.65,0.603,0.884,0.988c0.276,0.459,0.484,0.982,0.622,1.572c0.146,0.604,0.223,1.336,0.229,2.194h-6.922
			c0.007,1.317,0.242,2.287,0.704,2.91c0.462,0.622,1.166,0.934,2.112,0.934c0.554,0,1.052-0.104,1.496-0.312
			s0.925-0.573,1.441-1.098L285.924,283.823z M282.977,279.249c-0.029-1.114-0.175-1.943-0.437-2.489
			c-0.263-0.546-0.685-0.819-1.267-0.819c-0.561,0-1.007,0.284-1.338,0.852c-0.331,0.568-0.529,1.387-0.595,2.457H282.977z"/>
		<path fill="#FFCD4A" d="M291.537,276.541l0.142,0.033c0.531-0.626,1.077-1.077,1.638-1.354c0.561-0.276,1.168-0.415,1.823-0.415
			c0.444,0,0.91,0.048,1.397,0.143v3.014h-1.976c-0.124-0.423-0.286-0.746-0.486-0.973c-0.2-0.225-0.468-0.338-0.803-0.338
			c-0.16,0-0.337,0.049-0.529,0.147c-0.193,0.098-0.371,0.236-0.535,0.415c-0.163,0.178-0.28,0.36-0.35,0.546
			c-0.068,0.186-0.114,0.373-0.136,0.562c-0.022,0.189-0.033,0.474-0.033,0.853v3.482c0,0.691,0.025,1.176,0.076,1.452
			s0.153,0.493,0.306,0.649c0.153,0.156,0.411,0.268,0.775,0.333v0.721h-5.383v-0.721c0.35-0.095,0.592-0.218,0.727-0.371
			s0.226-0.36,0.272-0.622c0.048-0.263,0.071-0.739,0.071-1.431v-4.487c0-0.538-0.009-0.937-0.027-1.195s-0.062-0.466-0.131-0.622
			c-0.069-0.157-0.175-0.284-0.316-0.383c-0.143-0.098-0.388-0.184-0.737-0.256v-0.743l2.991-0.087h1.376L291.537,276.541z"/>
		<path fill="#FFCD4A" d="M298.743,282.862c0.175,0.663,0.451,1.159,0.829,1.49c0.379,0.332,0.885,0.497,1.518,0.497
			c0.546,0,0.959-0.123,1.239-0.371c0.28-0.247,0.421-0.607,0.421-1.081c0-0.298-0.064-0.553-0.191-0.764s-0.338-0.413-0.633-0.606
			c-0.295-0.192-0.799-0.445-1.513-0.759c-0.4-0.175-0.776-0.367-1.13-0.578c-0.353-0.212-0.66-0.45-0.923-0.716
			c-0.262-0.266-0.469-0.563-0.622-0.89c-0.152-0.327-0.229-0.691-0.229-1.092c0-0.655,0.189-1.223,0.568-1.703
			c0.378-0.48,0.919-0.848,1.621-1.103s1.505-0.383,2.407-0.383c0.531,0,1.052,0.022,1.562,0.066
			c0.51,0.043,1.168,0.138,1.977,0.283v2.544h-1.441c-0.168-0.466-0.352-0.826-0.552-1.081c-0.2-0.254-0.42-0.431-0.66-0.529
			c-0.24-0.098-0.528-0.147-0.862-0.147c-0.48,0-0.863,0.109-1.146,0.328c-0.284,0.218-0.426,0.523-0.426,0.917
			c0,0.276,0.051,0.513,0.152,0.709c0.102,0.197,0.284,0.388,0.546,0.573s0.768,0.436,1.518,0.748
			c0.685,0.284,1.241,0.581,1.671,0.89c0.429,0.31,0.757,0.666,0.982,1.07s0.339,0.875,0.339,1.414c0,0.59-0.109,1.097-0.328,1.522
			c-0.218,0.427-0.524,0.777-0.917,1.054c-0.394,0.277-0.864,0.482-1.414,0.617s-1.155,0.202-1.817,0.202
			c-1.201,0-2.537-0.171-4.007-0.514v-2.609H298.743z"/>
	</g>
</g>
</svg>
